<?xml version="1.0" encoding="UTF-8" standalone="no"?>
<!-- Created with Inkscape (http://www.inkscape.org/) -->
<svg xmlns:dc="http://purl.org/dc/elements/1.1/" xmlns:cc="http://web.resource.org/cc/" xmlns:rdf="http://www.w3.org/1999/02/22-rdf-syntax-ns#" xmlns:svg="http://www.w3.org/2000/svg" xmlns="http://www.w3.org/2000/svg" xmlns:xlink="http://www.w3.org/1999/xlink" xmlns:sodipodi="http://sodipodi.sourceforge.net/DTD/sodipodi-0.dtd" xmlns:inkscape="http://www.inkscape.org/namespaces/inkscape" version="1.0" width="400" height="360" id="svg2" sodipodi:version="0.32" inkscape:version="0.44.1" sodipodi:docname="P_movie.svg" sodipodi:docbase="c:\Rabka">
  <metadata id="metadata11">
    <rdf:RDF>
      <cc:Work rdf:about="">
        <dc:format>image/svg+xml</dc:format>
        <dc:type rdf:resource="http://purl.org/dc/dcmitype/StillImage"/>
      </cc:Work>
    </rdf:RDF>
  </metadata>
  <sodipodi:namedview inkscape:window-height="573" inkscape:window-width="888" inkscape:pageshadow="2" inkscape:pageopacity="0.0" guidetolerance="10.0" gridtolerance="10.0" objecttolerance="10.0" borderopacity="1.0" bordercolor="#666666" pagecolor="#ffffff" id="base" inkscape:zoom="1.0472222" inkscape:cx="200" inkscape:cy="180" inkscape:window-x="88" inkscape:window-y="116" inkscape:current-layer="svg2"/>
  <defs id="defs4">
    <linearGradient x1="92.604424" y1="304.50995" x2="263.82959" y2="26.290426" id="linearGradient3199" xlink:href="#linearGradient2889" gradientUnits="userSpaceOnUse"/>
    <linearGradient id="linearGradient2889">
      <stop style="stop-color:#a0a3e1;stop-opacity:1" offset="0" id="stop2891"/>
      <stop style="stop-color:#dedcfa;stop-opacity:1" offset="1" id="stop2893"/>
    </linearGradient>
    <linearGradient gradientTransform="translate(0,2)" gradientUnits="userSpaceOnUse" y2="32.133045" x2="26.625" y1="32.133045" x1="43.6875" id="linearGradient7144" xlink:href="#linearGradient7138" inkscape:collect="always"/>
    <linearGradient gradientUnits="userSpaceOnUse" y2="25.772396" x2="29.049412" y1="12.75" x1="23.816254" id="linearGradient7093" xlink:href="#linearGradient7087" inkscape:collect="always"/>
    <radialGradient gradientUnits="userSpaceOnUse" gradientTransform="matrix(1,0,0,0.663934,0,9.061528)" r="21.566757" fy="26.963573" fx="23.157747" cy="26.963573" cx="23.157747" id="radialGradient7085" xlink:href="#linearGradient7079" inkscape:collect="always"/>
    <linearGradient gradientTransform="matrix(0.884878,0,0,0.884878,5.318113,5.943159)" gradientUnits="userSpaceOnUse" y2="34.140205" x2="40.820396" y1="35.24506" x1="46.54464" id="linearGradient7075" xlink:href="#linearGradient7069" inkscape:collect="always"/>
    <linearGradient gradientUnits="userSpaceOnUse" y2="-4.5986342" x2="21.107563" y1="31.867859" x1="21.03167" id="linearGradient7060" xlink:href="#linearGradient7054" inkscape:collect="always"/>
    <linearGradient id="linearGradient7054" inkscape:collect="always">
      <stop id="stop7056" offset="0" style="stop-color:#ffffff;stop-opacity:1;"/>
      <stop id="stop7058" offset="1" style="stop-color:#ffffff;stop-opacity:0;"/>
    </linearGradient>
    <radialGradient gradientTransform="translate(1.971678,9.220141)" inkscape:collect="always" xlink:href="#aigrd4" id="radialGradient6540" gradientUnits="userSpaceOnUse" cx="20.655508" cy="24.735121" fx="20.655508" fy="24.735121" r="14.1515"/>
    <radialGradient gradientUnits="userSpaceOnUse" fy="22.6138" fx="9.3418" r="14.1515" cy="22.6138" cx="9.3418" id="aigrd4">
      <stop id="stop6452" style="stop-color:#767676" offset="0"/>
      <stop id="stop6454" style="stop-color:#484848" offset="1"/>
    </radialGradient>
    <linearGradient id="linearGradient7069" inkscape:collect="always">
      <stop id="stop7071" offset="0" style="stop-color:#888a85;stop-opacity:1;"/>
      <stop id="stop7073" offset="1" style="stop-color:#888a85;stop-opacity:0;"/>
    </linearGradient>
    <linearGradient id="linearGradient7079" inkscape:collect="always">
      <stop id="stop7081" offset="0" style="stop-color:#000000;stop-opacity:1;"/>
      <stop id="stop7083" offset="1" style="stop-color:#000000;stop-opacity:0;"/>
    </linearGradient>
    <linearGradient id="linearGradient7087">
      <stop id="stop7089" offset="0" style="stop-color:#888a85;stop-opacity:1;"/>
      <stop id="stop7091" offset="1" style="stop-color:#b8b9b6;stop-opacity:1;"/>
    </linearGradient>
    <linearGradient id="linearGradient7138" inkscape:collect="always">
      <stop id="stop7140" offset="0" style="stop-color:#ffffff;stop-opacity:1;"/>
      <stop id="stop7142" offset="1" style="stop-color:#ffffff;stop-opacity:0;"/>
    </linearGradient>
  </defs>
  <g id="layer1">
    <path d="M 374 169 A 190 152 0 1 1  -6,169 A 190 152 0 1 1  374 169 z" transform="matrix(0.851641,-0.524127,0.524127,0.851641,-45.27941,132.512)" style="fill:url(#linearGradient3199);fill-opacity:1;stroke:none;stroke-width:3.125;stroke-linecap:butt;stroke-linejoin:round;stroke-miterlimit:4;stroke-dasharray:none;stroke-dashoffset:0;stroke-opacity:1" id="path2869"/>
  </g>
  <g inkscape:label="Layer 1" id="g2170" transform="matrix(7.256137,0,0,7.256137,23.85871,6.620563)">
    <path transform="translate(1.237437,0.762563)" inkscape:r_cy="true" inkscape:r_cx="true" d="M 44.724504 26.963573 A 21.566757 14.318913 0 1 1  1.5909901,26.963573 A 21.566757 14.318913 0 1 1  44.724504 26.963573 z" sodipodi:ry="14.318913" sodipodi:rx="21.566757" sodipodi:cy="26.963573" sodipodi:cx="23.157747" id="path7077" style="opacity:0.70329674;color:black;fill:url(#radialGradient7085);fill-opacity:1;fill-rule:evenodd;stroke:none;stroke-width:1;stroke-linecap:round;stroke-linejoin:round;marker:none;marker-start:none;marker-mid:none;marker-end:none;stroke-miterlimit:4;stroke-dasharray:none;stroke-dashoffset:0;stroke-opacity:1;visibility:visible;display:inline;overflow:visible" sodipodi:type="arc"/>
    <path sodipodi:type="arc" style="opacity:1;color:black;fill:#a1a39f;fill-opacity:1;fill-rule:evenodd;stroke:#6d6f6a;stroke-width:0.7190817;stroke-linecap:round;stroke-linejoin:round;marker:none;marker-start:none;marker-mid:none;marker-end:none;stroke-miterlimit:4;stroke-dasharray:none;stroke-dashoffset:0;stroke-opacity:1;visibility:visible;display:inline;overflow:visible" id="path7028" sodipodi:cx="25.75" sodipodi:cy="21" sodipodi:rx="14.75" sodipodi:ry="8.25" d="M 40.5 21 A 14.75 8.25 0 1 1  11,21 A 14.75 8.25 0 1 1  40.5 21 z" inkscape:r_cx="true" inkscape:r_cy="true" transform="matrix(1.254237,0,0,1.541926,-9.79661,-6.279528)"/>
    <path transform="matrix(0.764011,0,0,1.001814,2.310475,2.543083)" inkscape:r_cy="true" inkscape:r_cx="true" d="M 40.5 21 A 14.75 8.25 0 1 1  11,21 A 14.75 8.25 0 1 1  40.5 21 z" sodipodi:ry="8.25" sodipodi:rx="14.75" sodipodi:cy="21" sodipodi:cx="25.75" id="path7042" style="opacity:1;color:black;fill:#555753;fill-opacity:1;fill-rule:evenodd;stroke:none;stroke-width:1.11522388;stroke-linecap:round;stroke-linejoin:round;marker:none;marker-start:none;marker-mid:none;marker-end:none;stroke-miterlimit:4;stroke-dasharray:none;stroke-dashoffset:0;stroke-opacity:1;visibility:visible;display:inline;overflow:visible" sodipodi:type="arc"/>
    <path sodipodi:nodetypes="czccc" inkscape:r_cy="true" inkscape:r_cx="true" id="path6456" d="M 46.025804,41.226233 C 46.025804,41.226233 37.701909,37.489226 32.369805,37.959515 C 26.686793,38.460754 17.193028,38.796952 13.471708,32.920175 C 29.269805,37.684641 36.558698,29.774427 47.251087,34.22969 C 47.251087,34.22969 46.025804,41.226233 46.025804,41.226233 z " style="fill:url(#radialGradient6540);fill-rule:nonzero;stroke:#3b3d39;stroke-miterlimit:4;stroke-opacity:1"/>
    <path sodipodi:type="arc" style="opacity:1;color:black;fill:url(#linearGradient7093);fill-opacity:1;fill-rule:evenodd;stroke:#757972;stroke-width:1.23408842;stroke-linecap:round;stroke-linejoin:round;marker:none;marker-start:none;marker-mid:none;marker-end:none;stroke-miterlimit:4;stroke-dasharray:none;stroke-dashoffset:0;stroke-opacity:1;visibility:visible;display:inline;overflow:visible" id="path7026" sodipodi:cx="25.75" sodipodi:cy="21" sodipodi:rx="14.75" sodipodi:ry="8.25" d="M 40.5 21 A 14.75 8.25 0 1 1  11,21 A 14.75 8.25 0 1 1  40.5 21 z" inkscape:r_cx="true" inkscape:r_cy="true" transform="matrix(0.760969,0,0,0.986663,2.905048,0.584267)"/>
    <path inkscape:r_cy="true" inkscape:r_cx="true" id="path7012" d="M 21.09375,7.71875 C 11.536229,8.2444238 4.0000001,14.13337 4,21.25 C 4,28.711046 12.288003,34.781251 22.5,34.78125 C 32.711998,34.78125 41,28.711045 41,21.25 C 41,13.788954 32.711998,7.71875 22.5,7.71875 C 22.460109,7.71875 22.414832,7.7185655 22.375,7.71875 C 22.136944,7.7198528 21.892094,7.7111092 21.65625,7.71875 C 21.541092,7.7224809 21.4271,7.7134779 21.3125,7.71875 C 21.236995,7.7222235 21.169006,7.7146108 21.09375,7.71875 z M 19.71875,9.90625 C 19.782003,9.9011431 19.842341,9.9097202 19.90625,9.90625 C 20.040354,9.8989684 20.175794,9.90625 20.3125,9.90625 C 23.228892,9.9062502 25.59375,11.608453 25.59375,13.6875 C 25.59375,15.766547 23.228891,17.4375 20.3125,17.4375 C 17.396109,17.4375 15.03125,15.766547 15.03125,13.6875 C 15.03125,11.752352 17.083204,10.119037 19.71875,9.90625 z M 31.21875,14.5 C 31.285397,14.494037 31.338935,14.504252 31.40625,14.5 C 31.523002,14.492625 31.631386,14.502149 31.75,14.5 C 31.798199,14.499127 31.826509,14.5 31.875,14.5 C 34.978453,14.5 37.5,16.314203 37.5,18.53125 C 37.5,20.748296 34.978454,22.53125 31.875,22.53125 C 28.771546,22.531251 26.25,20.748297 26.25,18.53125 C 26.249999,16.483247 28.441783,14.748443 31.21875,14.5 z M 12,17.65625 C 12.217826,17.638427 12.463035,17.65625 12.6875,17.65625 C 15.879889,17.65625 18.46875,19.498598 18.46875,21.78125 C 18.46875,24.063902 15.879889,25.90625 12.6875,25.90625 C 9.4951118,25.90625 6.90625,24.063902 6.90625,21.78125 C 6.90625,19.659098 9.1198541,17.891914 12,17.65625 z M 23.53125,22.78125 C 23.555225,22.778464 23.56969,22.783841 23.59375,22.78125 C 23.596499,22.781133 23.622453,22.781217 23.625,22.78125 C 23.627553,22.781295 23.653493,22.781349 23.65625,22.78125 C 23.662492,22.781356 23.684306,22.781365 23.6875,22.78125 C 23.713653,22.781429 23.755011,22.780867 23.78125,22.78125 C 23.78446,22.781173 23.806268,22.781167 23.8125,22.78125 C 24.053476,22.761472 24.28293,22.78125 24.53125,22.78125 C 28.062916,22.78125 30.9375,24.810811 30.9375,27.34375 C 30.9375,29.87669 28.062916,31.9375 24.53125,31.9375 C 20.999584,31.9375 18.125,29.876689 18.125,27.34375 C 18.125,25.061781 20.486444,23.135039 23.53125,22.78125 z " style="opacity:1;color:black;fill:#d3d7cf;fill-opacity:1;fill-rule:evenodd;stroke:#888a85;stroke-width:1;stroke-linecap:round;stroke-linejoin:round;marker:none;marker-start:none;marker-mid:none;marker-end:none;stroke-miterlimit:4;stroke-dasharray:none;stroke-dashoffset:0;stroke-opacity:1;visibility:visible;display:inline;overflow:visible"/>
    <path transform="matrix(0.950533,0,0,0.9375,1.450995,3.320621)" inkscape:r_cy="true" inkscape:r_cx="true" d="M 40.65864 19.008621 A 18.473166 13.435029 0 1 1  3.7123089,19.008621 A 18.473166 13.435029 0 1 1  40.65864 19.008621 z" sodipodi:ry="13.435029" sodipodi:rx="18.473166" sodipodi:cy="19.008621" sodipodi:cx="22.185474" id="path7044" style="opacity:1;color:black;fill:none;fill-opacity:1;fill-rule:evenodd;stroke:url(#linearGradient7060);stroke-width:1.05932879;stroke-linecap:round;stroke-linejoin:round;marker:none;marker-start:none;marker-mid:none;marker-end:none;stroke-miterlimit:4;stroke-dasharray:none;stroke-dashoffset:0;stroke-opacity:1;visibility:visible;display:inline;overflow:visible" sodipodi:type="arc"/>
    <path sodipodi:nodetypes="ccccc" inkscape:r_cy="true" inkscape:r_cx="true" id="path7067" d="M 46.875,34.493906 L 45.793438,40.543896 C 43.18442,39.668459 41.611389,38.97574 38.722272,38.287036 L 39.054101,33.374389 C 40.952632,33.173083 43.91738,33.516123 46.875,34.493906 z " style="opacity:1;color:black;fill:url(#linearGradient7075);fill-opacity:1;fill-rule:evenodd;stroke:none;stroke-width:1;stroke-linecap:round;stroke-linejoin:round;marker:none;marker-start:none;marker-mid:none;marker-end:none;stroke-miterlimit:4;stroke-dasharray:none;stroke-dashoffset:0;stroke-opacity:1;visibility:visible;display:inline;overflow:visible"/>
    <path sodipodi:nodetypes="cccc" inkscape:r_cy="true" inkscape:r_cx="true" id="path7136" d="M 46.875,34.3125 L 46.6875,35.1875 C 38.582601,32.158614 31.121435,34.960781 23.3125,35.1875 C 33.923553,34.304921 37.402743,31.471843 46.875,34.3125 z " style="opacity:0.70329674;color:black;fill:url(#linearGradient7144);fill-opacity:1;fill-rule:evenodd;stroke:none;stroke-width:1;stroke-linecap:round;stroke-linejoin:round;marker:none;marker-start:none;marker-mid:none;marker-end:none;stroke-miterlimit:4;stroke-dasharray:none;stroke-dashoffset:0;stroke-opacity:1;visibility:visible;display:inline;overflow:visible"/>
  </g>
</svg>