<?xml version="1.0" encoding="UTF-8" standalone="no"?>
<!-- Created with Inkscape (http://www.inkscape.org/) -->

<svg
   xmlns:dc="http://purl.org/dc/elements/1.1/"
   xmlns:cc="http://creativecommons.org/ns#"
   xmlns:rdf="http://www.w3.org/1999/02/22-rdf-syntax-ns#"
   xmlns:svg="http://www.w3.org/2000/svg"
   xmlns="http://www.w3.org/2000/svg"
   xmlns:sodipodi="http://sodipodi.sourceforge.net/DTD/sodipodi-0.dtd"
   xmlns:inkscape="http://www.inkscape.org/namespaces/inkscape"
   width="102.18104mm"
   height="57.453903mm"
   viewBox="0 0 102.18104 57.453903"
   version="1.1"
   id="svg8"
   inkscape:version="0.92.3 (2405546, 2018-03-11)"
   sodipodi:docname="under_construction.svg">
  <defs
     id="defs2" />
  <sodipodi:namedview
     id="base"
     pagecolor="#ffffff"
     bordercolor="#666666"
     borderopacity="1.0"
     inkscape:pageopacity="0.0"
     inkscape:pageshadow="2"
     inkscape:zoom="0.98994949"
     inkscape:cx="138.4579"
     inkscape:cy="-125.40558"
     inkscape:document-units="mm"
     inkscape:current-layer="layer1"
     showgrid="false"
     fit-margin-top="0"
     fit-margin-left="0"
     fit-margin-right="0"
     fit-margin-bottom="0"
     inkscape:window-width="1920"
     inkscape:window-height="1163"
     inkscape:window-x="1920"
     inkscape:window-y="0"
     inkscape:window-maximized="1" />
  <metadata
     id="metadata5">
    <rdf:RDF>
      <cc:Work
         rdf:about="">
        <dc:format>image/svg+xml</dc:format>
        <dc:type
           rdf:resource="http://purl.org/dc/dcmitype/StillImage" />
        <dc:title />
      </cc:Work>
    </rdf:RDF>
  </metadata>
  <g
     inkscape:label="Layer 1"
     inkscape:groupmode="layer"
     id="layer1"
     transform="translate(-23.925144,-58.199203)">
    <path
       style="opacity:0.5;fill:#19b8f3;fill-opacity:1;stroke:#19b8f3;stroke-width:4;stroke-miterlimit:4;stroke-dasharray:none;stroke-opacity:1"
       d="M 79.379047,86.926155 A 26.726952,26.726952 0 0 1 52.652096,113.65311 26.726952,26.726952 0 0 1 25.925144,86.926155 26.726952,26.726952 0 0 1 52.652096,60.199203 26.726952,26.726952 0 0 1 79.379047,86.926155 Z"
       id="path817" />
    <g
       aria-label="i"
       style="font-style:normal;font-variant:normal;font-weight:normal;font-stretch:normal;font-size:10.58333302px;line-height:1.25;font-family:'Comic Sans MS';-inkscape-font-specification:'Comic Sans MS';letter-spacing:0px;word-spacing:0px;fill:#000000;fill-opacity:1;stroke:none;stroke-width:0.26458332"
       id="text821">
      <path
         d="m 55.026719,72.384187 c 2.046111,-1.834445 2.187222,-1.975556 4.586111,-3.81 -0.423333,-0.846667 -0.776111,-1.411111 -0.917222,-1.622778 -0.423333,-0.846667 -0.493889,-0.917222 -1.058333,-2.257778 -0.141111,-0.282222 -0.282222,-0.564444 -0.423334,-0.917222 -0.352777,0.282222 -0.776111,0.564444 -0.987777,0.776111 -0.282223,0.282222 -0.846667,0.705556 -1.552223,1.27 -0.352777,0.282222 -0.846666,0.635 -1.481666,1.058333 -0.282223,0.211667 -0.564445,0.423334 -0.846667,0.564445 0.493889,1.552222 1.128889,2.681111 2.681111,4.938889 z m 4.868334,26.670001 c -6.702778,3.598332 -6.843889,3.668892 -7.761112,3.668892 -0.776111,0 -1.27,-0.77611 -1.27,-1.97556 0,-0.70555 0.211667,-2.04611 0.635,-3.598332 3.598334,-14.816668 4.303889,-17.63889 4.303889,-18.203334 0,-0.423334 -0.352777,-0.705556 -0.846666,-0.705556 -1.199445,0 -5.362223,2.328334 -11.147778,6.208889 l -0.141112,1.975556 c 4.162778,-2.257778 4.515556,-2.398889 5.150556,-2.398889 0.564445,0 0.846667,0.423333 0.846667,1.27 0,0.917222 -0.211667,1.905 -1.27,5.926667 -3.316111,12.347219 -3.316111,12.347219 -3.316111,14.111109 0,1.69334 0.705555,2.82222 1.693333,2.82222 1.199444,0 3.104444,-0.91722 6.843889,-3.31611 1.340556,-0.84666 2.681111,-1.69333 4.021667,-2.61055 0.635,-0.35278 1.27,-0.77611 1.975555,-1.19945 z"
         style="font-style:normal;font-variant:normal;font-weight:normal;font-stretch:normal;font-size:70.55555725px;font-family:'URW Chancery L';-inkscape-font-specification:'URW Chancery L';stroke-width:0.26458332"
         id="path861" />
    </g>
    <g
       aria-label="Under
construction"
       style="font-style:normal;font-variant:normal;font-weight:normal;font-stretch:normal;font-size:10.58333302px;line-height:1.25;font-family:'Trebuchet MS';-inkscape-font-specification:'Trebuchet MS';letter-spacing:0px;word-spacing:0px;fill:#000000;fill-opacity:1;stroke:none;stroke-width:0.26458332"
       id="text825">
      <path
         d="m 70.166444,82.190114 q -0.217041,1.167888 -1.085205,1.813843 -0.868164,0.645956 -2.14974,0.645956 -1.069702,0 -1.746663,-0.511597 -0.671794,-0.516764 -0.671794,-1.421102 0,-0.273885 0.05684,-0.583944 l 0.950846,-5.183146 h 1.384928 l -0.966349,5.157308 q -0.02584,0.139526 -0.02584,0.294556 0,0.511596 0.315226,0.790649 0.315226,0.279053 0.857829,0.279053 0.692464,0 1.152384,-0.377238 0.45992,-0.377238 0.583944,-1.059367 l 0.945678,-5.084961 h 1.364258 z"
         style="font-style:italic;font-variant:normal;font-weight:bold;font-stretch:normal;font-family:'Trebuchet MS';-inkscape-font-specification:'Trebuchet MS Bold Italic';stroke-width:0.26458332"
         id="path826" />
      <path
         d="m 75.778505,84.520721 h -1.33842 l 0.604614,-3.224609 q 0.07235,-0.387573 0.07235,-0.651123 0,-0.687296 -0.81132,-0.687296 -0.692464,0 -1.245402,0.583943 l -0.738973,3.979085 h -1.297078 l 0.780314,-4.149617 q 0.02067,-0.10852 0.02067,-0.299723 0,-0.45992 -0.149862,-0.981852 l 1.266072,-0.232544 0.118856,0.620117 q 0.682129,-0.594279 1.71049,-0.594279 1.705322,0 1.705322,1.596802 0,0.28422 -0.07235,0.671793 z"
         style="font-style:italic;font-variant:normal;font-weight:bold;font-stretch:normal;font-family:'Trebuchet MS';-inkscape-font-specification:'Trebuchet MS Bold Italic';stroke-width:0.26458332"
         id="path828" />
      <path
         d="m 81.845318,84.520721 h -1.286743 l 0.09819,-0.516764 q -0.428915,0.620117 -1.421102,0.620117 -0.971517,0 -1.519287,-0.56844 -0.54777,-0.573609 -0.54777,-1.555461 0,-1.586466 0.883667,-2.599324 0.883667,-1.018026 2.351277,-1.018026 0.279053,0 0.625285,0.10852 0.346232,0.108521 0.501261,0.237712 l 0.475424,-2.511475 h 1.250569 z m -1.353923,-4.547525 q -0.894002,0 -1.426269,0.65629 -0.5271,0.656291 -0.5271,1.669149 0,1.260905 1.043864,1.260905 1.126546,0 1.462443,-1.79834 l 0.248047,-1.322917 q -0.248047,-0.465087 -0.800985,-0.465087 z"
         style="font-style:italic;font-variant:normal;font-weight:bold;font-stretch:normal;font-family:'Trebuchet MS';-inkscape-font-specification:'Trebuchet MS Bold Italic';stroke-width:0.26458332"
         id="path830" />
      <path
         d="m 84.894227,82.117767 q -0.01034,0.134359 -0.01034,0.232544 0,0.578776 0.341065,0.888835 0.346232,0.310059 0.956014,0.310059 0.325561,0 0.749308,-0.1757 0.423747,-0.180868 0.666626,-0.403076 l -0.149862,1.35909 q -0.65629,0.294555 -1.601969,0.294555 -1.023193,0 -1.658813,-0.645955 -0.635621,-0.645955 -0.635621,-1.772502 0,-1.426269 0.914673,-2.371948 0.919841,-0.950846 2.402954,-0.950846 0.873332,0 1.415935,0.37207 0.542602,0.366903 0.542602,1.054199 0,0.935344 -0.81132,1.467611 -0.806152,0.532267 -1.989543,0.532267 -0.578776,0 -1.131713,-0.191203 z m 0.248047,-0.976684 q 0.335896,0.09819 0.728637,0.09819 0.7028,0 1.188558,-0.211873 0.485759,-0.217041 0.485759,-0.620117 0,-0.449585 -0.981853,-0.449585 -0.387573,0 -0.790649,0.341064 -0.403076,0.335897 -0.630452,0.842326 z"
         style="font-style:italic;font-variant:normal;font-weight:bold;font-stretch:normal;font-family:'Trebuchet MS';-inkscape-font-specification:'Trebuchet MS Bold Italic';stroke-width:0.26458332"
         id="path832" />
      <path
         d="m 93.462178,80.298757 q -0.45992,-0.341064 -0.81132,-0.341064 -0.501261,0 -0.91984,0.439249 -0.413411,0.434082 -0.521932,0.997355 l -0.583944,3.126424 h -1.297078 l 1.033529,-5.534545 h 1.297078 l -0.08785,0.480591 q 0.687297,-0.583944 1.519287,-0.583944 0.211873,0 0.759644,0.09819 z"
         style="font-style:italic;font-variant:normal;font-weight:bold;font-stretch:normal;font-family:'Trebuchet MS';-inkscape-font-specification:'Trebuchet MS Bold Italic';stroke-width:0.26458332"
         id="path834" />
      <path
         d="m 68.667827,93.584767 q -0.542602,-0.397908 -1.09554,-0.397908 -0.888834,0 -1.431437,0.666626 -0.537435,0.661458 -0.537435,1.658813 0,0.516765 0.304891,0.883667 0.304891,0.366903 0.785482,0.366903 0.692464,0 1.627807,-0.589111 l -0.155029,1.348754 q -0.790649,0.33073 -1.627807,0.33073 -1.049032,0 -1.663982,-0.578776 -0.609781,-0.583944 -0.609781,-1.60197 0,-1.545125 0.894002,-2.552815 0.894002,-1.007691 2.340942,-1.007691 0.826823,0 1.431437,0.341065 z"
         style="font-style:italic;font-variant:normal;font-weight:bold;font-stretch:normal;font-family:'Trebuchet MS';-inkscape-font-specification:'Trebuchet MS Bold Italic';stroke-width:0.26458332"
         id="path836" />
      <path
         d="m 69.458477,95.677663 q 0,-1.498617 0.914673,-2.532145 0.914673,-1.033529 2.315104,-1.033529 1.069702,0 1.648478,0.558106 0.578776,0.552937 0.578776,1.576131 0,1.529622 -0.904337,2.568318 -0.904338,1.038697 -2.335775,1.038697 -1.049032,0 -1.632975,-0.558106 -0.583944,-0.563273 -0.583944,-1.617472 z m 1.343587,-0.06201 q 0,1.18339 1.018026,1.18339 0.806152,0 1.276408,-0.74414 0.470255,-0.749308 0.470255,-1.772502 0,-1.116211 -1.018025,-1.116211 -0.79065,0 -1.271241,0.738973 -0.475423,0.733806 -0.475423,1.71049 z"
         style="font-style:italic;font-variant:normal;font-weight:bold;font-stretch:normal;font-family:'Trebuchet MS';-inkscape-font-specification:'Trebuchet MS Bold Italic';stroke-width:0.26458332"
         id="path838" />
      <path
         d="m 80.015971,97.749888 h -1.338419 l 0.604614,-3.22461 q 0.07235,-0.387573 0.07235,-0.651123 0,-0.687296 -0.81132,-0.687296 -0.692464,0 -1.245402,0.583944 l -0.738973,3.979085 H 75.26174 l 0.780314,-4.149618 q 0.02067,-0.10852 0.02067,-0.299723 0,-0.45992 -0.149861,-0.981852 l 1.266072,-0.232544 0.118856,0.620117 q 0.682129,-0.594279 1.71049,-0.594279 1.705322,0 1.705322,1.596802 0,0.28422 -0.07235,0.671793 z"
         style="font-style:italic;font-variant:normal;font-weight:bold;font-stretch:normal;font-family:'Trebuchet MS';-inkscape-font-specification:'Trebuchet MS Bold Italic';stroke-width:0.26458332"
         id="path840" />
      <path
         d="m 85.162944,93.729461 q -0.620117,-0.542602 -1.136881,-0.542602 -0.320394,0 -0.558106,0.149862 -0.232544,0.144694 -0.232544,0.39274 0,0.304891 0.558106,0.589112 0.563273,0.28422 0.862996,0.454752 0.299723,0.165365 0.490926,0.454753 0.191203,0.28422 0.191203,0.656291 0,0.914672 -0.687297,1.441772 -0.682129,0.5271 -1.746663,0.5271 -0.909505,0 -1.777669,-0.511597 l 0.682129,-1.173055 q 0.645955,0.609782 1.266072,0.609782 0.392741,0 0.645956,-0.196371 0.258382,-0.19637 0.258382,-0.532267 0,-0.279053 -0.485759,-0.532267 -0.485758,-0.253215 -0.857828,-0.45992 -0.372071,-0.211874 -0.568441,-0.511597 -0.191203,-0.304891 -0.191203,-0.671794 0,-0.806152 0.640788,-1.281575 0.645955,-0.480591 1.581299,-0.480591 0.640787,0 1.663981,0.434082 z"
         style="font-style:italic;font-variant:normal;font-weight:bold;font-stretch:normal;font-family:'Trebuchet MS';-inkscape-font-specification:'Trebuchet MS Bold Italic';stroke-width:0.26458332"
         id="path842" />
      <path
         d="m 90.27891,93.254038 h -1.524455 l -0.558105,2.454631 q -0.06718,0.294555 -0.06718,0.490926 0,0.568441 0.640787,0.568441 0.284221,0 0.930176,-0.268718 v 1.16272 q -0.558105,0.191203 -1.519287,0.191203 -0.630452,0 -1.012858,-0.392741 -0.382406,-0.392741 -0.382406,-1.023194 0,-0.206705 0.04651,-0.408243 l 0.625285,-2.775025 h -0.640788 l 0.222209,-1.038696 h 0.640788 l 0.217041,-1.131714 1.477946,-0.537435 -0.387574,1.669149 h 1.51412 z"
         style="font-style:italic;font-variant:normal;font-weight:bold;font-stretch:normal;font-family:'Trebuchet MS';-inkscape-font-specification:'Trebuchet MS Bold Italic';stroke-width:0.26458332"
         id="path844" />
      <path
         d="m 95.053813,93.527923 q -0.45992,-0.341064 -0.81132,-0.341064 -0.501261,0 -0.91984,0.43925 -0.413412,0.434082 -0.521932,0.997355 l -0.583944,3.126424 h -1.297078 l 1.033528,-5.534546 h 1.297079 l -0.08785,0.480591 q 0.687296,-0.583944 1.519287,-0.583944 0.211873,0 0.759643,0.09819 z"
         style="font-style:italic;font-variant:normal;font-weight:bold;font-stretch:normal;font-family:'Trebuchet MS';-inkscape-font-specification:'Trebuchet MS Bold Italic';stroke-width:0.26458332"
         id="path846" />
      <path
         d="m 100.09226,97.755055 h -1.291906 l 0.07752,-0.403076 q -0.692465,0.501262 -1.736329,0.501262 -0.713134,0 -1.121378,-0.408244 -0.403076,-0.408244 -0.403076,-1.131714 0,-0.227376 0.05684,-0.532267 l 0.666626,-3.565674 h 1.312581 l -0.656291,3.513997 q -0.04134,0.222209 -0.04134,0.377238 0,0.671794 0.754476,0.671794 0.61495,0 1.028361,-0.397909 0.418579,-0.403076 0.521932,-0.966349 l 0.568441,-3.198771 h 1.297075 z"
         style="font-style:italic;font-variant:normal;font-weight:bold;font-stretch:normal;font-family:'Trebuchet MS';-inkscape-font-specification:'Trebuchet MS Bold Italic';stroke-width:0.26458332"
         id="path848" />
      <path
         d="m 105.97821,93.584767 q -0.5426,-0.397908 -1.09554,-0.397908 -0.88883,0 -1.43144,0.666626 -0.53743,0.661458 -0.53743,1.658813 0,0.516765 0.30489,0.883667 0.30489,0.366903 0.78548,0.366903 0.69246,0 1.62781,-0.589111 l -0.15503,1.348754 q -0.79065,0.33073 -1.62781,0.33073 -1.04903,0 -1.66398,-0.578776 -0.60978,-0.583944 -0.60978,-1.60197 0,-1.545125 0.894,-2.552815 0.894,-1.007691 2.34094,-1.007691 0.82683,0 1.43144,0.341065 z"
         style="font-style:italic;font-variant:normal;font-weight:bold;font-stretch:normal;font-family:'Trebuchet MS';-inkscape-font-specification:'Trebuchet MS Bold Italic';stroke-width:0.26458332"
         id="path850" />
      <path
         d="m 110.74278,93.254038 h -1.52446 l -0.5581,2.454631 q -0.0672,0.294555 -0.0672,0.490926 0,0.568441 0.64079,0.568441 0.28422,0 0.93017,-0.268718 v 1.16272 q -0.5581,0.191203 -1.51929,0.191203 -0.63045,0 -1.01285,-0.392741 -0.38241,-0.392741 -0.38241,-1.023194 0,-0.206705 0.0465,-0.408243 l 0.62528,-2.775025 h -0.64078 l 0.22221,-1.038696 h 0.64078 l 0.21704,-1.131714 1.47795,-0.537435 -0.38757,1.669149 h 1.51412 z"
         style="font-style:italic;font-variant:normal;font-weight:bold;font-stretch:normal;font-family:'Trebuchet MS';-inkscape-font-specification:'Trebuchet MS Bold Italic';stroke-width:0.26458332"
         id="path852" />
      <path
         d="m 112.69615,90.437673 q 0,-0.346232 0.24287,-0.573609 0.24805,-0.232544 0.59945,-0.232544 0.34623,0 0.59428,0.232544 0.24805,0.227377 0.24805,0.573609 0,0.341064 -0.24805,0.573608 -0.24805,0.232544 -0.59428,0.232544 -0.34623,0 -0.59428,-0.227376 -0.24804,-0.232544 -0.24804,-0.578776 z m 0.3824,7.312215 h -1.31258 l 0.83716,-4.49585 h -0.70797 l 0.21704,-1.038696 h 1.99988 z"
         style="font-style:italic;font-variant:normal;font-weight:bold;font-stretch:normal;font-family:'Trebuchet MS';-inkscape-font-specification:'Trebuchet MS Bold Italic';stroke-width:0.26458332"
         id="path854" />
      <path
         d="m 114.85106,95.677663 q 0,-1.498617 0.91467,-2.532145 0.91467,-1.033529 2.3151,-1.033529 1.0697,0 1.64848,0.558106 0.57878,0.552937 0.57878,1.576131 0,1.529622 -0.90434,2.568318 -0.90434,1.038697 -2.33578,1.038697 -1.04903,0 -1.63297,-0.558106 -0.58394,-0.563273 -0.58394,-1.617472 z m 1.34358,-0.06201 q 0,1.18339 1.01803,1.18339 0.80615,0 1.27641,-0.74414 0.47025,-0.749308 0.47025,-1.772502 0,-1.116211 -1.01802,-1.116211 -0.79065,0 -1.27124,0.738973 -0.47543,0.733806 -0.47543,1.71049 z"
         style="font-style:italic;font-variant:normal;font-weight:bold;font-stretch:normal;font-family:'Trebuchet MS';-inkscape-font-specification:'Trebuchet MS Bold Italic';stroke-width:0.26458332"
         id="path856" />
      <path
         d="m 125.40855,97.749888 h -1.33842 l 0.60461,-3.22461 q 0.0724,-0.387573 0.0724,-0.651123 0,-0.687296 -0.81132,-0.687296 -0.69246,0 -1.2454,0.583944 l -0.73898,3.979085 h -1.29707 l 0.78031,-4.149618 q 0.0207,-0.10852 0.0207,-0.299723 0,-0.45992 -0.14986,-0.981852 l 1.26607,-0.232544 0.11886,0.620117 q 0.68213,-0.594279 1.71049,-0.594279 1.70532,0 1.70532,1.596802 0,0.28422 -0.0724,0.671793 z"
         style="font-style:italic;font-variant:normal;font-weight:bold;font-stretch:normal;font-family:'Trebuchet MS';-inkscape-font-specification:'Trebuchet MS Bold Italic';stroke-width:0.26458332"
         id="path858" />
    </g>
  </g>
</svg>
