<?xml version="1.0" encoding="UTF-8" standalone="no"?>
<!-- Created with Inkscape (http://www.inkscape.org/) -->

<svg
   id="svg2"
   xml:space="preserve"
   viewBox="0 0 33.768 48.576"
   version="1.1"
   inkscape:version="1.1.2 (0a00cf5339, 2022-02-04)"
   sodipodi:docname="misc-pet-rock.svg"
   inkscape:export-filename="/home/mholmes/endings/Endings/presentations/bcnet_2024/images/misc-pet-rock.png"
   inkscape:export-xdpi="1705.5336"
   inkscape:export-ydpi="1705.5336"
   xmlns:inkscape="http://www.inkscape.org/namespaces/inkscape"
   xmlns:sodipodi="http://sodipodi.sourceforge.net/DTD/sodipodi-0.dtd"
   xmlns="http://www.w3.org/2000/svg"
   xmlns:svg="http://www.w3.org/2000/svg"
   xmlns:rdf="http://www.w3.org/1999/02/22-rdf-syntax-ns#"
   xmlns:cc="http://creativecommons.org/ns#"
   xmlns:dc="http://purl.org/dc/elements/1.1/"><sodipodi:namedview
   id="namedview268"
   pagecolor="#ffffff"
   bordercolor="#666666"
   borderopacity="1.0"
   inkscape:pageshadow="2"
   inkscape:pageopacity="0.0"
   inkscape:pagecheckerboard="0"
   showgrid="false"
   inkscape:zoom="15.336792"
   inkscape:cx="16.887495"
   inkscape:cy="24.255399"
   inkscape:window-width="1920"
   inkscape:window-height="1163"
   inkscape:window-x="1920"
   inkscape:window-y="0"
   inkscape:window-maximized="1"
   inkscape:current-layer="svg2" />
  <defs
   id="defs6">
    <clipPath
   id="clipPath18">
      <path
   id="path20"
   d="m25.734 24.81c-0.078 0.481-0.214 1.629-0.398 3.441-0.137 1.04-0.32 1.735-0.563 2.079-0.105 0.16-0.414 1.496-0.918 4-0.453 2.32-0.96 3.695-1.519 4.121-0.563 0.425-1.254 0.519-2.082 0.281-1.465-0.402-2.332-0.613-2.598-0.641l-7.16-0.718-1.281-0.36c-0.535-0.137-1.254-0.457-2.16-0.961-1.094-0.64-1.95-1.105-2.559-1.402-0.855-0.399-1.59-1.172-2.203-2.32-0.531-0.985-0.934-2.133-1.199-3.438-0.055-0.32-0.332-1.215-0.84-2.68-0.293-0.8-0.332-1.535-0.121-2.199 0.32-1.043 0.48-1.883 0.48-2.523 0-0.133 0.082-0.664 0.242-1.598 0.106-0.828 0.133-1.801 0.079-2.922-0.106-1.918-0.211-3.293-0.321-4.117l-0.32-1.641c-0.184-0.8-0.105-1.972 0.242-3.519 0.348-1.52 0.801-2.695 1.36-3.52 0.718-0.988 1.093-1.496 1.121-1.523 0.238-0.293 0.734-0.68 1.48-1.16 0.559-0.371 1.692-0.531 3.399-0.477 1.972 0.051 3.441-0.066 4.398-0.363 2.855-0.824 5.227-0.863 7.121-0.117 0.613 0.238 1.508 0.519 2.68 0.84 1.015 0.503 1.933 1.48 2.761 2.918 1.438 2.562 2.161 5.96 2.161 10.199 0 2.297-0.426 5.734-1.282 10.32z"
   inkscape:connector-curvature="0" />
    </clipPath>
    <clipPath
   id="clipPath26">
      <path
   id="path28"
   d="m0 0h28v39h-28v-39z"
   inkscape:connector-curvature="0" />
    </clipPath>
    <clipPath
   id="clipPath42">
      <path
   id="path44"
   d="m0 0h28v39h-28v-39z"
   inkscape:connector-curvature="0" />
    </clipPath>
    <linearGradient
   id="linearGradient50"
   y2="-18683"
   gradientUnits="userSpaceOnUse"
   x2="3434.1"
   gradientTransform="matrix(-.2816 -.7488 .7488 -.2816 14959 -2680.8)"
   y1="-18683"
   x1="3424.7">
      <stop
   id="stop52"
   style="stop-color:#967f6c"
   offset="0" />
      <stop
   id="stop54"
   style="stop-color:#9e8571"
   offset="1" />
    </linearGradient>
    <linearGradient
   id="linearGradient60"
   y2="-13686"
   gradientUnits="userSpaceOnUse"
   x2="-1951.3"
   gradientTransform="matrix(.22632 -.76728 .76728 .22632 10959 1612.2)"
   y1="-13686"
   x1="-1955">
      <stop
   id="stop62"
   style="stop-color:#9c8572"
   offset="0" />
      <stop
   id="stop64"
   style="stop-color:#c1a48f"
   offset="1" />
    </linearGradient>
    <linearGradient
   id="linearGradient70"
   y2="-13665"
   gradientUnits="userSpaceOnUse"
   x2="-1961.6"
   gradientTransform="matrix(.22824 -.7668 .7668 .22824 10939 1622.9)"
   y1="-13665"
   x1="-1963.8">
      <stop
   id="stop72"
   style="stop-color:#9c8572"
   offset="0" />
      <stop
   id="stop74"
   style="stop-color:#c1a48f"
   offset="1" />
    </linearGradient>
    <linearGradient
   id="linearGradient80"
   y2="-13706"
   gradientUnits="userSpaceOnUse"
   x2="-1944.7"
   gradientTransform="matrix(.22576 -.76752 .76752 .22576 10965 1608.7)"
   y1="-13706"
   x1="-1946.4">
      <stop
   id="stop82"
   style="stop-color:#9c8572"
   offset="0" />
      <stop
   id="stop84"
   style="stop-color:#c1a48f"
   offset="1" />
    </linearGradient>
    <linearGradient
   id="linearGradient90"
   y2="-13690"
   gradientUnits="userSpaceOnUse"
   x2="-1958.5"
   gradientTransform="matrix(.22712 -.76712 .76712 .22712 10950 1616.7)"
   y1="-13690"
   x1="-1963.2">
      <stop
   id="stop92"
   style="stop-color:#8c7563"
   offset="0" />
      <stop
   id="stop94"
   style="stop-color:#a88e79"
   offset="1" />
    </linearGradient>
    <linearGradient
   id="linearGradient100"
   y2="-7930.8"
   gradientUnits="userSpaceOnUse"
   x2="-3349.8"
   gradientTransform="matrix(.5776 -.55352 .55352 .5776 6344.8 2729.2)"
   y1="-7930.8"
   x1="-3352.3">
      <stop
   id="stop102"
   style="stop-color:#736051"
   offset="0" />
      <stop
   id="stop104"
   style="stop-color:#8c7766"
   offset="1" />
    </linearGradient>
    <linearGradient
   id="linearGradient110"
   y2="-13704"
   gradientUnits="userSpaceOnUse"
   x2="-1932"
   gradientTransform="matrix(.22456 -.76784 .76784 .22456 10977 1601.9)"
   y1="-13704"
   x1="-1934.8">
      <stop
   id="stop112"
   style="stop-color:#8c7563"
   offset="0" />
      <stop
   id="stop114"
   style="stop-color:#a88e79"
   offset="1" />
    </linearGradient>
    <linearGradient
   id="linearGradient120"
   y2="-13700"
   gradientUnits="userSpaceOnUse"
   x2="-1934.7"
   gradientTransform="matrix(.2252 -.76768 .76768 .2252 10971 1605.5)"
   y1="-13700"
   x1="-1936.7">
      <stop
   id="stop122"
   style="stop-color:#8c7563"
   offset="0" />
      <stop
   id="stop124"
   style="stop-color:#a88e79"
   offset="1" />
    </linearGradient>
    <linearGradient
   id="linearGradient130"
   y2="-13642"
   gradientUnits="userSpaceOnUse"
   x2="-1968.7"
   gradientTransform="matrix(.22904 -.76656 .76656 .22904 10931 1627.4)"
   y1="-13642"
   x1="-1974.9">
      <stop
   id="stop132"
   style="stop-color:#8c7563"
   offset="0" />
      <stop
   id="stop134"
   style="stop-color:#a88e79"
   offset="1" />
    </linearGradient>
    <linearGradient
   id="linearGradient140"
   y2="-13627"
   gradientUnits="userSpaceOnUse"
   x2="-2001.7"
   gradientTransform="matrix(.22984 -.76624 .76624 .22984 10921 1632.5)"
   y1="-13627"
   x1="-2004.3">
      <stop
   id="stop142"
   style="stop-color:#9c8572"
   offset="0" />
      <stop
   id="stop144"
   style="stop-color:#c1a48f"
   offset="1" />
    </linearGradient>
    <linearGradient
   id="linearGradient150"
   y2="-13669"
   gradientUnits="userSpaceOnUse"
   x2="-1986"
   gradientTransform="matrix(.2284 -.76672 .76672 .2284 10937 1623.9)"
   y1="-13669"
   x1="-1990.9">
      <stop
   id="stop152"
   style="stop-color:#9c8572"
   offset="0" />
      <stop
   id="stop154"
   style="stop-color:#c1a48f"
   offset="1" />
    </linearGradient>
    <linearGradient
   id="linearGradient160"
   y2="-13668"
   gradientUnits="userSpaceOnUse"
   x2="-1974.3"
   gradientTransform="matrix(.22832 -.76672 .76672 .22832 10938 1623.4)"
   y1="-13668"
   x1="-1979">
      <stop
   id="stop162"
   style="stop-color:#9c8572"
   offset="0" />
      <stop
   id="stop164"
   style="stop-color:#c1a48f"
   offset="1" />
    </linearGradient>
    <linearGradient
   id="linearGradient170"
   y2="-13672"
   gradientUnits="userSpaceOnUse"
   x2="-1967"
   gradientTransform="matrix(.228 -.7668 .7668 .228 10941 1621.6)"
   y1="-13672"
   x1="-1970.9">
      <stop
   id="stop172"
   style="stop-color:#9c8572"
   offset="0" />
      <stop
   id="stop174"
   style="stop-color:#c1a48f"
   offset="1" />
    </linearGradient>
    <clipPath
   id="clipPath176">
      <path
   id="path178"
   d="m18.855 37.031c0.454 0 0.774-0.105 0.961-0.32 0.133-0.188 0.2-0.508 0.2-0.961s0.066-1.254 0.199-2.398c0.105-1.176 0.199-1.856 0.281-2.04 0.106-0.214 0.172-0.667 0.199-1.363 0.051-0.719 0.028-1.238-0.082-1.558-0.133-0.453-0.519-1.161-1.16-2.121 0.375-0.879 0.336-1.719-0.117-2.52-0.16-0.266-0.414-0.867-0.762-1.801-0.265-0.691-0.519-1.16-0.758-1.398-0.296-0.293-0.668-0.961-1.121-2-0.402-0.906-0.773-1.426-1.121-1.559-0.933-0.613-1.758-1.148-2.48-1.601-1.332-0.879-2.371-1.321-3.121-1.321-0.774 0-1.598 0.16-2.477 0.481l-1.121 0.48c-0.187 0.985-0.734 1.824-1.641 2.52-0.535 0.426-0.851 0.867-0.961 1.32-0.238 1.012-0.437 1.707-0.597 2.078-0.563 1.121-0.922 1.883-1.082 2.281-0.239 0.614-0.293 1.266-0.16 1.961l0.48 3c0.027 0.399 0.199 0.907 0.52 1.52 0.402 0.773 0.613 1.215 0.64 1.32 0.082 0.293 0.266 0.641 0.559 1.039 0.347 0.508 0.734 0.868 1.16 1.082 0.961 0.453 1.707 0.973 2.242 1.559 0.719 0.668 1.559 1.051 2.52 1.16 1.629 0.106 2.785 0.227 3.48 0.359 0.399 0.082 0.934 0.106 1.598 0.082 0.801 0 1.402 0.012 1.801 0.04 0.48 0.027 0.855 0.144 1.121 0.359 0.238 0.215 0.507 0.32 0.8 0.32z"
   inkscape:connector-curvature="0" />
    </clipPath>
    <clipPath
   id="clipPath180">
      <path
   id="path182"
   d="m-418.03-15911h31.249v26.514h-31.249v-26.514z"
   inkscape:connector-curvature="0" />
    </clipPath>
    <radialGradient
   id="radialGradient184"
   gradientUnits="userSpaceOnUse"
   cy="-15898"
   cx="-413.53"
   r="20.815">
      <stop
   id="stop186"
   style="stop-color:#ffffff"
   offset="0" />
      <stop
   id="stop188"
   style="stop-color:#ffffff;stop-opacity:0"
   offset="1" />
    </radialGradient>
    <mask
   id="mask190">
      <g
   id="g192">
        <g
   id="g194"
   clip-path="url(#clipPath180)">
          <path
   id="path196"
   style="fill:url(#radialGradient184)"
   d="m-418.03-15911h31.249v26.514h-31.249v-26.514z"
   inkscape:connector-curvature="0" />
        </g>
      </g>
    </mask>
    <radialGradient
   id="radialGradient198"
   gradientUnits="userSpaceOnUse"
   cy="-15898"
   cx="-413.53"
   r="20.815">
      <stop
   id="stop200"
   style="stop-color:#ffe7d0"
   offset="0" />
      <stop
   id="stop202"
   style="stop-color:#dbbfa6"
   offset="1" />
    </radialGradient>
    <linearGradient
   id="linearGradient208"
   y2="-5.2022"
   gradientUnits="userSpaceOnUse"
   x2="3.5703"
   gradientTransform="matrix(.8 0 0 .8 13.814 19.351)"
   y1="-8.4277"
   x1="1.271">
      <stop
   id="stop210"
   style="stop-color:#909598"
   offset="0" />
      <stop
   id="stop212"
   style="stop-color:#4b4d4e"
   offset="1" />
    </linearGradient>
    <linearGradient
   id="linearGradient218"
   y2="-9.2476"
   gradientUnits="userSpaceOnUse"
   x2="-.583"
   gradientTransform="matrix(.8 0 0 .8 13.814 19.351)"
   y1="-12.849"
   x1="-1.6294">
      <stop
   id="stop220"
   style="stop-color:#909598"
   offset="0" />
      <stop
   id="stop222"
   style="stop-color:#4b4d4e"
   offset="1" />
    </linearGradient>
    <linearGradient
   id="linearGradient228"
   y2="-12.127"
   gradientUnits="userSpaceOnUse"
   x2="-9.9684"
   gradientTransform="matrix(.8 0 0 .8 13.814 19.351)"
   y1="-14.776"
   x1="-9.2427">
      <stop
   id="stop230"
   style="stop-color:#909598"
   offset="0" />
      <stop
   id="stop232"
   style="stop-color:#4b4d4e"
   offset="1" />
    </linearGradient>
    <linearGradient
   id="linearGradient238"
   y2="-5.4996"
   gradientUnits="userSpaceOnUse"
   x2="-13.334"
   gradientTransform="matrix(.8 0 0 .8 13.814 19.351)"
   y1="-10.9"
   x1="-13.252">
      <stop
   id="stop240"
   style="stop-color:#909598"
   offset="0" />
      <stop
   id="stop242"
   style="stop-color:#4b4d4e"
   offset="1" />
    </linearGradient>
    <linearGradient
   id="linearGradient248"
   y2="-18.361"
   gradientUnits="userSpaceOnUse"
   x2="7.2552"
   gradientTransform="matrix(.8 0 0 .8 13.814 19.351)"
   y1="-20.133"
   x1="6.7217">
      <stop
   id="stop250"
   style="stop-color:#909598"
   offset="0" />
      <stop
   id="stop252"
   style="stop-color:#4b4d4e"
   offset="1" />
    </linearGradient>
    <linearGradient
   id="linearGradient258"
   y2="-11.476"
   gradientUnits="userSpaceOnUse"
   x2="10.114"
   gradientTransform="matrix(.8 0 0 .8 13.814 19.351)"
   y1="-14.053"
   x1="7.6162">
      <stop
   id="stop260"
   style="stop-color:#909598"
   offset="0" />
      <stop
   id="stop262"
   style="stop-color:#4b4d4e"
   offset="1" />
    </linearGradient>
    <linearGradient
   id="linearGradient268"
   y2="-14.139"
   gradientUnits="userSpaceOnUse"
   x2="6.4918"
   gradientTransform="matrix(.8 0 0 .8 13.814 19.351)"
   y1="-16.512"
   x1="4.9893">
      <stop
   id="stop270"
   style="stop-color:#909598"
   offset="0" />
      <stop
   id="stop272"
   style="stop-color:#4b4d4e"
   offset="1" />
    </linearGradient>
    <clipPath
   id="clipPath274">
      <path
   id="path276"
   d="m20.016 35.75c0-0.453 0.066-1.254 0.199-2.398 0.105-1.176 0.199-1.856 0.281-2.04 0.106-0.214 0.172-0.667 0.199-1.363 0.055-0.719 0.028-1.238-0.082-1.558-0.133-0.453-0.519-1.161-1.16-2.121 0.375-0.879 0.336-1.719-0.117-2.52-0.16-0.266-0.414-0.867-0.762-1.801-0.265-0.691-0.519-1.16-0.758-1.398-0.296-0.293-0.668-0.961-1.121-2-0.402-0.906-0.773-1.426-1.121-1.559-0.933-0.613-1.758-1.148-2.48-1.601-1.332-0.879-2.371-1.321-3.121-1.321-0.774 0-1.598 0.16-2.477 0.481l-1.121 0.48c-0.187 0.985-0.734 1.824-1.641 2.52-0.535 0.426-0.851 0.867-0.961 1.32-0.238 1.012-0.437 1.707-0.597 2.078-0.563 1.121-0.922 1.883-1.082 2.281-0.239 0.614-0.293 1.266-0.16 1.961l0.48 3c0.027 0.399 0.199 0.907 0.52 1.52 0.402 0.773 0.613 1.215 0.64 1.32 0.082 0.293 0.266 0.641 0.559 1.039 0.347 0.508 0.734 0.868 1.16 1.082 0.961 0.453 1.707 0.973 2.242 1.559 0.719 0.668 1.559 1.051 2.52 1.16 1.625 0.106 2.785 0.227 3.48 0.359 0.399 0.082 0.934 0.106 1.598 0.082 0.801 0 1.402 0.012 1.801 0.04 0.48 0.027 0.855 0.144 1.121 0.359 0.238 0.215 0.507 0.32 0.8 0.32 0.454 0 0.774-0.105 0.961-0.32 0.133-0.188 0.2-0.508 0.2-0.961z"
   inkscape:connector-curvature="0" />
    </clipPath>
    <clipPath
   id="clipPath278">
      <path
   id="path280"
   d="m-410.14-15908h31.249v26.513h-31.249v-26.513z"
   inkscape:connector-curvature="0" />
    </clipPath>
    <radialGradient
   id="radialGradient282"
   gradientUnits="userSpaceOnUse"
   cy="-15895"
   cx="-405.63"
   r="20.815">
      <stop
   id="stop284"
   style="stop-color:#ffffff"
   offset="0" />
      <stop
   id="stop286"
   style="stop-color:#ffffff;stop-opacity:0"
   offset="1" />
    </radialGradient>
    <mask
   id="mask288">
      <g
   id="g290">
        <g
   id="g292"
   clip-path="url(#clipPath278)">
          <path
   id="path294"
   style="fill:url(#radialGradient282)"
   d="m-410.14-15908h31.249v26.513h-31.249v-26.513z"
   inkscape:connector-curvature="0" />
        </g>
      </g>
    </mask>
    <radialGradient
   id="radialGradient296"
   gradientUnits="userSpaceOnUse"
   cy="-15895"
   cx="-405.63"
   r="20.815">
      <stop
   id="stop298"
   style="stop-color:#ffe7d0"
   offset="0" />
      <stop
   id="stop300"
   style="stop-color:#dbbfa6"
   offset="1" />
    </radialGradient>
    <linearGradient
   id="linearGradient306"
   y2="-2.0974"
   gradientUnits="userSpaceOnUse"
   x2="10.513"
   gradientTransform="matrix(.8 0 0 .8 13.814 19.351)"
   y1="-6.7983"
   x1="9.5679">
      <stop
   id="stop308"
   style="stop-color:#909598"
   offset="0" />
      <stop
   id="stop310"
   style="stop-color:#4b4d4e"
   offset="1" />
    </linearGradient>
    <linearGradient
   id="linearGradient316"
   y2="20.83"
   gradientUnits="userSpaceOnUse"
   x2="6.5249"
   gradientTransform="matrix(.8 0 0 .8 13.814 19.351)"
   y1="18.883"
   x1="5.7432">
      <stop
   id="stop318"
   style="stop-color:#909598"
   offset="0" />
      <stop
   id="stop320"
   style="stop-color:#4b4d4e"
   offset="1" />
    </linearGradient>
    <linearGradient
   id="linearGradient326"
   y2="9.9002"
   gradientUnits="userSpaceOnUse"
   x2="-13.69"
   gradientTransform="matrix(.8 0 0 .8 13.814 19.351)"
   y1="8.2002"
   x1="-13.69">
      <stop
   id="stop328"
   style="stop-color:#777b80"
   offset="0" />
      <stop
   id="stop330"
   style="stop-color:#6b7072"
   offset="1" />
    </linearGradient>
    <linearGradient
   id="linearGradient336"
   y2="1.5265"
   gradientUnits="userSpaceOnUse"
   x2="-9.0649"
   gradientTransform="matrix(.8 0 0 .8 13.814 19.351)"
   y1="-1.8232"
   x1="-8.5132">
      <stop
   id="stop338"
   style="stop-color:#909598"
   offset="0" />
      <stop
   id="stop340"
   style="stop-color:#4b4d4e"
   offset="1" />
    </linearGradient>
    <linearGradient
   id="linearGradient346"
   y2="-2.2968"
   gradientUnits="userSpaceOnUse"
   x2="-7.1356"
   gradientTransform="matrix(.8 0 0 .8 13.814 19.351)"
   y1="-6.7979"
   x1="-6.7998">
      <stop
   id="stop348"
   style="stop-color:#909598"
   offset="0" />
      <stop
   id="stop350"
   style="stop-color:#4b4d4e"
   offset="1" />
    </linearGradient>
  </defs>
  <g
   id="g10"
   transform="matrix(1.25 0 0 -1.25 0 48.576)">
    <g
   id="g14">
      <g
   id="g16"
   clip-path="url(#clipPath18)">
        <g
   id="g22"
   transform="translate(0 -.13914)">
          <g
   id="g30">
            <g
   id="g32"
   clip-path="url(#clipPath26)">
              <g
   id="g34">
                <path
   id="path36"
   style="fill-rule:evenodd;fill:#b4b8bb"
   d="m25.734 24.949c0.856-4.586 1.282-8.027 1.282-10.32 0-4.238-0.723-7.637-2.161-10.199-0.828-1.438-1.75-2.414-2.761-2.918-1.172-0.321-2.067-0.602-2.68-0.84-1.894-0.75-4.266-0.707-7.121 0.117-0.957 0.297-2.426 0.414-4.398 0.363-1.707-0.054-2.84 0.106-3.399 0.477-0.746 0.48-1.242 0.867-1.48 1.16-0.028 0.027-0.403 0.535-1.121 1.523-0.559 0.825-1.012 2-1.36 3.52-0.347 1.547-0.426 2.719-0.242 3.52l0.32 1.64c0.11 0.824 0.215 2.199 0.321 4.117 0.054 1.121 0.027 2.094-0.079 2.922-0.16 0.934-0.242 1.465-0.242 1.598 0 0.641-0.16 1.48-0.48 2.523-0.211 0.664-0.172 1.399 0.121 2.2 0.508 1.464 0.785 2.359 0.84 2.679 0.265 1.305 0.668 2.453 1.199 3.438 0.613 1.148 1.348 1.922 2.203 2.32 0.613 0.297 1.465 0.762 2.559 1.402 0.906 0.504 1.625 0.825 2.16 0.961l1.281 0.36 7.16 0.718c0.266 0.028 1.133 0.239 2.598 0.641 0.828 0.238 1.519 0.145 2.082-0.281 0.559-0.426 1.066-1.801 1.519-4.121 0.504-2.504 0.813-3.84 0.918-4 0.243-0.344 0.426-1.039 0.563-2.078 0.184-1.813 0.32-2.961 0.398-3.442z"
   inkscape:connector-curvature="0" />
              </g>
            </g>
          </g>
        </g>
        <g
   id="g38"
   transform="translate(0 -.13914)">
          <g
   id="g352">
            <g
   id="g354"
   clip-path="url(#clipPath42)">
              <g
   id="g356">
                <path
   id="path358"
   style="fill-rule:evenodd;fill:#9e8571"
   d="m22.656 31.512c-0.215 1.812-0.347 3.277-0.402 4.398-0.027 1.149-0.227 2.16-0.598 3.039l0.68-0.359c0.559-0.426 1.066-1.801 1.519-4.121 0.504-2.504 0.813-3.84 0.918-4 0.266-0.371 0.481-1.039 0.641-2 0.082-0.559 0.242-1.653 0.481-3.278 0.613-3.015 1.066-6.453 1.359-10.32 0.187-1.894 0.187-3.426 0-4.601-0.293-2.024-1.094-3.973-2.399-5.84-0.96-1.387-1.988-2.348-3.082-2.879-1.226-0.426-2.144-0.762-2.757-1-0.774-0.321-1.883-0.399-3.321-0.239-0.402 0.051-1.828 0.305-4.281 0.758-0.852 0.133-2.187 0.16-4 0.082-1.332-0.082-2.305 0.078-2.918 0.477-0.746 0.48-1.242 0.867-1.48 1.16-0.028 0.027-0.403 0.535-1.121 1.523-0.559 0.825-1.012 2-1.36 3.52-0.347 1.547-0.43 2.719-0.242 3.52l0.32 1.64c0.11 0.824 0.215 2.199 0.321 4.117l0.039 1.481c0.297-0.188 0.777-0.426 1.441-0.719 0.586-0.348 1-0.785 1.242-1.32 0.344-0.856 0.664-1.774 0.957-2.762 0.321-1.117 0.481-1.918 0.481-2.398 0-0.934-0.199-2.055-0.598-3.36-0.16-0.586-0.043-1.015 0.359-1.281l0.719-0.199c0.614-0.188 1.227-0.442 1.84-0.762 0.801-0.426 2.039-0.371 3.719 0.16 0.535 0.188 1.066 0.27 1.601 0.242 0.586-0.027 0.989-0.015 1.2 0.039 0.402 0.106 0.816 0.641 1.242 1.602 0.398 0.906 0.84 1.387 1.32 1.438 0.613 0.054 1.172 0.441 1.68 1.16 0.504 0.855 0.84 1.425 1 1.722 0.211 0.399 0.304 0.664 0.277 0.797-0.051 0.242-0.105 0.535-0.16 0.883-0.051 0.531 0.027 1.199 0.242 2 0.215 0.797 0.481 1.387 0.801 1.758 0.426 0.508 0.547 1.707 0.359 3.601 0.801 1.575 1.321 3.079 1.559 4.52 0.375 2.133 0.508 4.066 0.402 5.801z"
   inkscape:connector-curvature="0" />
                <path
   id="path360"
   style="fill-rule:evenodd;fill:#7f6859"
   d="m21.375 21.109-0.68 0.082c0.481 0.239 0.946 0.547 1.399 0.918 0.961 0.746 1.468 1.453 1.519 2.121-0.051 0.481-0.093 0.946-0.117 1.399-0.082 0.855-0.043 1.574 0.117 2.16 0.16 0.535 0.282 0.801 0.36 0.801 0.054-0.028 0.082 0.015 0.082 0.121 0 0.187 0.375 0.508 1.121 0.961 0.133-0.375 0.265-0.988 0.398-1.84 0.266-1.707 0.399-2.586 0.399-2.641 0.933-5.015 1.402-9.054 1.402-12.121 0-1.679-0.094-2.972-0.281-3.879-0.266-1.281-0.852-2.695-1.758-4.242-0.801-1.465-1.867-2.547-3.203-3.238-1.465-0.535-2.504-0.922-3.117-1.16-0.746-0.293-1.789-0.348-3.121-0.16-1.68 0.343-3.032 0.531-4.059 0.558-1.031 0.035-2.242-0.051-3.641-0.258-1.398-0.211-2.043-0.086-1.941 0.379 0.773 0.426 1.375 0.989 1.801 1.68l1.16 0.641c0.398 0.214 1 0.254 1.801 0.121 0.824-0.133 1.425-0.094 1.8 0.117 0.399 0.215 0.625 0.297 0.68 0.242 0.16-0.215 0.543-0.336 1.16-0.359 0.637-0.055 1.028 0.066 1.16 0.359 0.106 0.266 0.36 0.359 0.758 0.281 0.586-0.109 1.465-0.015 2.641 0.278 1.094 0.265 1.758 0.519 2 0.761 0.535 0.532 0.801 1.399 0.801 2.598 0 0.59 0.093 1.027 0.277 1.32 0.375 0.348 0.707 0.723 1 1.121 0.375 0.508 0.59 1.016 0.641 1.52v1.562c0 0.293-0.211 1.012-0.641 2.157-0.371 0.988-0.465 1.695-0.277 2.121 0.453 1.015 0.277 1.961-0.52 2.84-0.269 0.32-0.641 0.547-1.121 0.679z"
   inkscape:connector-curvature="0" />
                <path
   id="path362"
   style="fill-rule:evenodd;fill:#635042"
   d="m25.734 24.832c0.106 0.023 0.188 0.133 0.239 0.32 0.109-0.617 0.386-2.066 0.843-4.363 0.399-2.344 0.598-4.32 0.598-5.918v-3.082l-0.758 0.242-0.402 1.281c-0.133 0.399-0.238 1-0.32 1.797-0.079 0.614-0.184 1.016-0.321 1.203-0.64 0.825-0.89 1.774-0.758 2.84 0.028 0.399 0.133 0.68 0.321 0.84 0.051 0.051-0.016 0.238-0.203 0.559-0.211 0.375-0.907 0.64-2.078 0.801l-1.68 0.117c1.199 0.777 2.105 1.508 2.719 2.203 0.296 0.336 0.539 0.547 0.722 0.617 0.367 0.262 0.727 0.441 1.078 0.543z"
   inkscape:connector-curvature="0" />
                <path
   id="path364"
   style="fill-rule:evenodd;fill:#635042"
   d="m18.934-0.008c-0.746-0.297-1.961-0.289-3.641 0.02-1.68 0.312-3.051 0.488-4.117 0.519-1.067 0.028-2.082 0.129-3.043 0.301l0.441 0.48 1.801 0.918c0.746 0.375 1.625 0.508 2.641 0.399 0.586-0.078 1.386-0.211 2.398-0.399l1.68-0.121 0.64 0.121c0.696 0.133 1.52 0.36 2.481 0.68 1.359 0.453 2.121 0.867 2.281 1.242 0.133 0.317 0.426 0.532 0.879 0.637 0.531 0.109 0.895 0.281 1.078 0.523l1.922 2.317c0.426 0.508 0.773 1.883 1.039 4.121-0.105-2.934-0.664-5.293-1.68-7.078-0.828-1.442-1.972-2.563-3.441-3.36-1.625-0.64-2.746-1.082-3.359-1.32z"
   inkscape:connector-curvature="0" />
                <path
   id="path366"
   style="fill-rule:evenodd;fill:#dbbfa6"
   d="m18.855 37.031c0.454 0 0.774-0.105 0.961-0.32 0.133-0.188 0.2-0.508 0.2-0.961s0.066-1.254 0.199-2.398c0.105-1.176 0.199-1.856 0.281-2.04 0.106-0.214 0.172-0.667 0.199-1.363 0.055-0.719 0.028-1.238-0.082-1.558-0.133-0.453-0.519-1.161-1.16-2.121 0.375-0.879 0.336-1.719-0.117-2.52-0.16-0.266-0.414-0.867-0.762-1.801-0.265-0.691-0.519-1.16-0.758-1.398-0.296-0.293-0.668-0.961-1.121-2-0.402-0.906-0.773-1.426-1.121-1.559-0.933-0.613-1.758-1.148-2.48-1.601-1.332-0.879-2.371-1.321-3.121-1.321-0.774 0-1.598 0.16-2.477 0.481l-1.121 0.48c-0.187 0.985-0.734 1.824-1.641 2.52-0.535 0.426-0.851 0.867-0.961 1.32-0.238 1.012-0.437 1.707-0.597 2.078-0.563 1.121-0.922 1.883-1.082 2.281-0.239 0.614-0.293 1.266-0.16 1.961l0.48 3c0.027 0.399 0.199 0.907 0.52 1.52 0.402 0.773 0.613 1.215 0.64 1.32 0.082 0.293 0.266 0.641 0.559 1.039 0.347 0.508 0.734 0.868 1.16 1.082 0.961 0.45 1.707 0.973 2.242 1.559 0.719 0.668 1.559 1.055 2.52 1.16 1.625 0.106 2.785 0.227 3.48 0.359 0.399 0.082 0.934 0.106 1.598 0.082 0.801 0 1.402 0.012 1.801 0.04 0.48 0.027 0.855 0.144 1.121 0.359 0.238 0.215 0.507 0.32 0.8 0.32z"
   inkscape:connector-curvature="0" />
                <g
   id="g368">
                  <g
   id="g370">
                    <g
   id="g372">
                      <path
   id="path374"
   style="fill-rule:evenodd;fill:url(#linearGradient50)"
   d="m0.293 11.352 0.32 1.64c0.11 0.824 0.215 2.199 0.321 4.117l0.039 1.481c0.297-0.188 0.777-0.426 1.441-0.719 0.586-0.348 1-0.785 1.242-1.32 0.344-0.856 0.664-1.774 0.957-2.762 0.321-1.117 0.481-1.918 0.481-2.398 0-0.934-0.199-2.055-0.598-3.36-0.082-0.32-0.043-0.64 0.117-0.961 0.082-0.16 0.16-0.332 0.242-0.519-0.562-0.266-0.921-0.375-1.082-0.321-1.652 0.774-2.773 1.493-3.359 2.161-0.238 1.332-0.281 2.32-0.121 2.961z"
   inkscape:connector-curvature="0" />
                    </g>
                  </g>
                </g>
                <g
   id="g376">
                  <g
   id="g378">
                    <g
   id="g380">
                      <path
   id="path382"
   style="fill-rule:evenodd;fill:url(#linearGradient60)"
   d="m15.375 14.672c0.746 0.238 1.199 0.144 1.359-0.281 0.133-0.321 0.067-0.68-0.199-1.079-0.695-1.066-1.414-1.562-2.16-1.48-0.402 0.051-0.453 0.504-0.16 1.359 0.32 0.825 0.707 1.321 1.16 1.481z"
   inkscape:connector-curvature="0" />
                    </g>
                  </g>
                </g>
                <g
   id="g384">
                  <g
   id="g386">
                    <g
   id="g388">
                      <path
   id="path390"
   style="fill-rule:evenodd;fill:url(#linearGradient70)"
   d="m12.375 8.469c-0.32 0.082-0.402 0.347-0.242 0.801 0.16 0.48 0.469 0.789 0.922 0.921 0.187 0.079 0.172-0.214-0.039-0.879-0.188-0.64-0.403-0.921-0.641-0.843z"
   inkscape:connector-curvature="0" />
                    </g>
                  </g>
                </g>
                <g
   id="g392">
                  <g
   id="g394">
                    <g
   id="g396">
                      <path
   id="path398"
   style="fill-rule:evenodd;fill:url(#linearGradient80)"
   d="m6.535 8.469c0.32-0.266 0.465-0.504 0.438-0.719-0.024-0.238-0.266-0.359-0.719-0.359-0.481 0-0.641 0.254-0.481 0.761 0.161 0.504 0.415 0.614 0.762 0.317z"
   inkscape:connector-curvature="0" />
                    </g>
                  </g>
                </g>
                <g
   id="g400">
                  <g
   id="g402">
                    <g
   id="g404">
                      <path
   id="path406"
   style="fill-rule:evenodd;fill:url(#linearGradient90)"
   d="m3.855 12.512c0.321-0.508 0.184-1.403-0.402-2.68l-0.48-0.203c-0.184-0.078-0.317 0.215-0.399 0.883-0.054 0.824-0.121 1.398-0.199 1.718-0.082 0.454 0.105 0.68 0.559 0.68 0.402 0.028 0.707-0.105 0.921-0.398z"
   inkscape:connector-curvature="0" />
                    </g>
                  </g>
                </g>
                <g
   id="g408">
                  <g
   id="g410">
                    <g
   id="g412">
                      <path
   id="path414"
   style="fill-rule:evenodd;fill:url(#linearGradient100)"
   d="m19.414 4.152c0.402 0.16 0.707 0.118 0.922-0.121 0.184-0.242 0.199-0.469 0.039-0.679-0.293-0.375-0.973-0.508-2.039-0.403-0.402 0.028-0.469 0.176-0.203 0.442 0.242 0.238 0.668 0.492 1.281 0.761z"
   inkscape:connector-curvature="0" />
                    </g>
                  </g>
                </g>
                <g
   id="g416">
                  <g
   id="g418">
                    <g
   id="g420">
                      <path
   id="path422"
   style="fill-rule:evenodd;fill:url(#linearGradient110)"
   d="m21.375 10.312c0.48 0.051 0.68-0.148 0.598-0.601-0.051-0.242-0.184-0.602-0.399-1.082-0.105-0.238-0.375-0.41-0.801-0.52-0.453-0.078-0.8-0.023-1.039 0.161-0.265 0.187-0.199 0.546 0.2 1.082 0.402 0.531 0.882 0.851 1.441 0.96z"
   inkscape:connector-curvature="0" />
                    </g>
                  </g>
                </g>
                <g
   id="g424">
                  <g
   id="g426">
                    <g
   id="g428">
                      <path
   id="path430"
   style="fill-rule:evenodd;fill:url(#linearGradient120)"
   d="m18.254 7.312c0.453 0.051 0.641-0.136 0.562-0.562-0.054-0.453-0.402-0.785-1.043-1-0.64-0.215-0.824-0.027-0.558 0.562 0.265 0.586 0.613 0.918 1.039 1z"
   inkscape:connector-curvature="0" />
                    </g>
                  </g>
                </g>
                <g
   id="g432">
                  <g
   id="g434">
                    <g
   id="g436">
                      <path
   id="path438"
   style="fill-rule:evenodd;fill:url(#linearGradient130)"
   d="m22.734 16.391c0.082-0.188 0.106-0.625 0.082-1.321-0.027-0.668-0.093-1.226-0.203-1.679-0.105-0.426-0.265-0.696-0.48-0.801-0.184-0.078-0.531-0.067-1.039 0.039-0.453 0.082-0.692 0.535-0.719 1.363-0.027 0.692 0.078 1.332 0.32 1.918 0.239 0.535 0.559 0.879 0.961 1.039 0.453 0.188 0.813 0 1.078-0.558z"
   inkscape:connector-curvature="0" />
                    </g>
                  </g>
                </g>
                <g
   id="g440">
                  <g
   id="g442">
                    <g
   id="g444">
                      <path
   id="path446"
   style="fill-rule:evenodd;fill:url(#linearGradient140)"
   d="m18.855 35.672c0.586 0.133 0.758-0.176 0.52-0.922-0.215-0.746-0.613-1.121-1.199-1.121s-0.789 0.297-0.602 0.883c0.188 0.613 0.614 1 1.281 1.16z"
   inkscape:connector-curvature="0" />
                    </g>
                  </g>
                </g>
                <g
   id="g448">
                  <g
   id="g450">
                    <g
   id="g452">
                      <path
   id="path454"
   style="fill-rule:evenodd;fill:url(#linearGradient150)"
   d="m2.496 28.312c0.32 0.266 0.637 0.118 0.957-0.441 0.32-0.48 0.481-0.945 0.481-1.402 0-0.531-0.051-0.891-0.161-1.078-0.183-0.293-0.585-0.414-1.199-0.36-0.613 0.028-0.867 0.52-0.758 1.481 0.079 0.879 0.305 1.48 0.68 1.8z"
   inkscape:connector-curvature="0" />
                    </g>
                  </g>
                </g>
                <g
   id="g456">
                  <g
   id="g458">
                    <g
   id="g460">
                      <path
   id="path462"
   style="fill-rule:evenodd;fill:url(#linearGradient160)"
   d="m6.453 20.07c0.508 0.426 0.961 0.215 1.363-0.64 0.372-0.852 0.372-1.504 0-1.961-0.589-0.774-1.203-0.653-1.843 0.363-0.477 0.797-0.317 1.547 0.48 2.238z"
   inkscape:connector-curvature="0" />
                    </g>
                  </g>
                </g>
                <g
   id="g464">
                  <g
   id="g466">
                    <g
   id="g468">
                      <path
   id="path470"
   style="fill-rule:evenodd;fill:url(#linearGradient170)"
   d="m8.375 15.91c0.719 0 1.078-0.48 1.078-1.441 0-0.586-0.277-0.985-0.84-1.199-0.558-0.211-0.957-0.079-1.199 0.402-0.238 0.531-0.281 1.023-0.121 1.48 0.187 0.504 0.547 0.758 1.082 0.758z"
   inkscape:connector-curvature="0" />
                    </g>
                  </g>
                </g>
                <g
   id="g472">
                  <g
   id="g474"
   clip-path="url(#clipPath176)">
                    <g
   id="g476"
   transform="matrix(.04128 -.79896 -.79896 -.04128 -12674 -951.77)">
                      <g
   id="g480"
   mask="url(#mask190)">
                        <path
   id="path482"
   style="fill-rule:evenodd;fill:url(#radialGradient198)"
   d="m18.855 37.031c0.454 0 0.774-0.105 0.961-0.32 0.133-0.188 0.2-0.508 0.2-0.961s0.066-1.254 0.199-2.398c0.105-1.176 0.199-1.856 0.281-2.04 0.106-0.214 0.172-0.667 0.199-1.363 0.051-0.719 0.028-1.238-0.082-1.558-0.133-0.453-0.519-1.161-1.16-2.121 0.375-0.879 0.336-1.719-0.117-2.52-0.16-0.266-0.414-0.867-0.762-1.801-0.265-0.691-0.519-1.16-0.758-1.398-0.296-0.293-0.668-0.961-1.121-2-0.402-0.906-0.773-1.426-1.121-1.559-0.933-0.613-1.758-1.148-2.48-1.601-1.332-0.879-2.371-1.321-3.121-1.321-0.774 0-1.598 0.16-2.477 0.481l-1.121 0.48c-0.187 0.985-0.734 1.824-1.641 2.52-0.535 0.426-0.851 0.867-0.961 1.32-0.238 1.012-0.437 1.707-0.597 2.078-0.563 1.121-0.922 1.883-1.082 2.281-0.239 0.614-0.293 1.266-0.16 1.961l0.48 3c0.027 0.399 0.199 0.907 0.52 1.52 0.402 0.773 0.613 1.215 0.64 1.32 0.082 0.293 0.266 0.641 0.559 1.039 0.347 0.508 0.734 0.868 1.16 1.082 0.961 0.453 1.707 0.973 2.242 1.559 0.719 0.668 1.559 1.051 2.52 1.16 1.629 0.106 2.785 0.227 3.48 0.359 0.399 0.082 0.934 0.106 1.598 0.082 0.801 0 1.402 0.012 1.801 0.04 0.48 0.027 0.855 0.144 1.121 0.359 0.238 0.215 0.507 0.32 0.8 0.32z"
   inkscape:connector-curvature="0" />
                      </g>
                    </g>
                  </g>
                </g>
                <path
   id="path484"
   style="fill-rule:evenodd;fill:#717679"
   d="m22.656 31.512c-0.215 1.812-0.347 3.277-0.402 4.398-0.027 1.149-0.227 2.16-0.598 3.039l0.68-0.359c0.559-0.426 1.066-1.801 1.519-4.121 0.504-2.504 0.813-3.84 0.918-4 0.266-0.371 0.481-1.039 0.641-2 0.082-0.559 0.242-1.653 0.481-3.278 0.613-3.015 1.066-6.453 1.359-10.32 0.187-1.894 0.187-3.426 0-4.601-0.293-2.024-1.094-3.973-2.399-5.84-0.96-1.387-1.988-2.348-3.082-2.879-1.226-0.426-2.144-0.762-2.757-1-0.774-0.321-1.883-0.399-3.321-0.239-0.402 0.051-1.828 0.305-4.281 0.758-0.852 0.133-2.187 0.16-4 0.082-1.332-0.082-2.305 0.078-2.918 0.477-0.75 0.48-1.242 0.867-1.48 1.16-0.028 0.027-0.403 0.535-1.121 1.523-0.559 0.825-1.012 2-1.36 3.52-0.347 1.547-0.426 2.719-0.242 3.52l0.32 1.64c0.11 0.824 0.215 2.199 0.321 4.117l0.039 1.481c0.297-0.188 0.773-0.426 1.441-0.719 0.586-0.348 1-0.785 1.242-1.32 0.344-0.856 0.664-1.774 0.957-2.762 0.321-1.117 0.481-1.918 0.481-2.398 0-0.934-0.199-2.055-0.598-3.36-0.16-0.586-0.043-1.015 0.359-1.281l0.719-0.199c0.614-0.188 1.227-0.442 1.84-0.762 0.801-0.426 2.039-0.371 3.719 0.16 0.535 0.188 1.066 0.27 1.601 0.242 0.586-0.027 0.989-0.015 1.2 0.039 0.402 0.106 0.816 0.641 1.242 1.602 0.398 0.906 0.84 1.387 1.32 1.438 0.613 0.054 1.172 0.441 1.68 1.16 0.504 0.855 0.84 1.425 1 1.722 0.211 0.399 0.304 0.664 0.277 0.797-0.051 0.242-0.105 0.535-0.16 0.883-0.051 0.531 0.027 1.199 0.242 2 0.215 0.797 0.481 1.387 0.801 1.758 0.426 0.508 0.547 1.707 0.359 3.601 0.801 1.575 1.321 3.079 1.559 4.52 0.375 2.133 0.508 4.066 0.402 5.801z"
   inkscape:connector-curvature="0" />
                <path
   id="path486"
   style="fill-rule:evenodd;fill:#5d6164"
   d="m21.375 21.109-0.68 0.082c0.481 0.239 0.946 0.547 1.399 0.918 0.961 0.746 1.468 1.453 1.519 2.121-0.051 0.481-0.093 0.946-0.117 1.399-0.082 0.855-0.043 1.574 0.117 2.16 0.16 0.535 0.282 0.801 0.36 0.801 0.054-0.028 0.082 0.015 0.082 0.121 0 0.187 0.375 0.508 1.121 0.961 0.133-0.375 0.265-0.988 0.398-1.84 0.266-1.707 0.399-2.586 0.399-2.641 0.933-5.015 1.402-9.054 1.402-12.121 0-1.679-0.094-2.972-0.281-3.879-0.266-1.281-0.852-2.695-1.758-4.242-0.801-1.465-1.867-2.547-3.203-3.238-1.465-0.535-2.504-0.922-3.117-1.16-0.746-0.293-1.789-0.348-3.121-0.16-1.68 0.343-3.032 0.531-4.059 0.558-1.031 0.035-2.242-0.051-3.641-0.258-1.398-0.211-2.043-0.086-1.941 0.379 0.773 0.426 1.375 0.989 1.801 1.68l1.16 0.641c0.398 0.214 1 0.254 1.801 0.121 0.824-0.133 1.425-0.094 1.8 0.117 0.399 0.215 0.625 0.297 0.68 0.242 0.16-0.215 0.543-0.336 1.16-0.359 0.637-0.055 1.028 0.066 1.16 0.359 0.106 0.266 0.36 0.359 0.758 0.281 0.586-0.109 1.465-0.015 2.641 0.278 1.094 0.265 1.758 0.519 2 0.761 0.535 0.532 0.801 1.399 0.801 2.598 0 0.59 0.093 1.027 0.277 1.32 0.375 0.348 0.707 0.723 1 1.121 0.375 0.508 0.59 1.016 0.641 1.52v1.562c0 0.293-0.211 1.012-0.641 2.157-0.371 0.988-0.465 1.695-0.277 2.121 0.453 1.015 0.277 1.961-0.52 2.84-0.269 0.32-0.641 0.547-1.121 0.679z"
   inkscape:connector-curvature="0" />
                <path
   id="path488"
   style="fill-rule:evenodd;fill:#43474a"
   d="m25.734 24.832c0.106 0.023 0.188 0.133 0.239 0.32 0.109-0.617 0.386-2.066 0.843-4.363 0.399-2.344 0.598-4.32 0.598-5.918v-3.082l-0.758 0.242-0.402 1.281c-0.133 0.399-0.238 1-0.32 1.797-0.079 0.614-0.184 1.016-0.321 1.203-0.64 0.825-0.89 1.77-0.758 2.84 0.028 0.399 0.133 0.68 0.321 0.84 0.051 0.051-0.016 0.238-0.203 0.559-0.211 0.375-0.907 0.64-2.078 0.801l-1.68 0.117c1.199 0.777 2.105 1.508 2.719 2.203 0.293 0.348 0.535 0.547 0.722 0.598 0.371 0.265 0.731 0.453 1.078 0.562z"
   inkscape:connector-curvature="0" />
                <path
   id="path490"
   style="fill-rule:evenodd;fill:#43474a"
   d="m17.734 2.23c0.696 0.133 1.52 0.36 2.481 0.68 1.359 0.453 2.121 0.867 2.281 1.242 0.133 0.317 0.426 0.532 0.879 0.637 0.531 0.109 0.895 0.281 1.078 0.523l1.922 2.317c0.426 0.508 0.773 1.883 1.039 4.121-0.105-2.934-0.664-5.293-1.68-7.078-0.828-1.442-1.972-2.563-3.441-3.36-1.625-0.64-2.746-1.082-3.359-1.32-0.746-0.297-1.961-0.289-3.641 0.02-1.68 0.312-3.051 0.488-4.117 0.519-1.067 0.028-2.082 0.129-3.043 0.301l0.441 0.48 1.801 0.918c0.746 0.375 1.625 0.508 2.641 0.399 0.586-0.078 1.386-0.211 2.398-0.399l1.68-0.121 0.64 0.121z"
   inkscape:connector-curvature="0" />
                <path
   id="path492"
   style="fill-rule:evenodd;fill:#b5babe"
   d="m20.695 29.949c0.051-0.719 0.028-1.238-0.082-1.558-0.133-0.453-0.519-1.161-1.16-2.121 0.375-0.879 0.336-1.719-0.117-2.52-0.16-0.266-0.414-0.867-0.762-1.801-0.265-0.691-0.519-1.16-0.758-1.398-0.296-0.293-0.668-0.961-1.121-2-0.402-0.906-0.773-1.426-1.121-1.559-0.933-0.613-1.758-1.148-2.48-1.601-1.332-0.879-2.371-1.321-3.121-1.321-0.774 0-1.598 0.16-2.477 0.481l-1.121 0.48c-0.187 0.985-0.734 1.824-1.641 2.52-0.535 0.426-0.851 0.867-0.961 1.32-0.238 1.012-0.437 1.707-0.597 2.078-0.563 1.121-0.922 1.883-1.082 2.281-0.239 0.614-0.293 1.266-0.16 1.961l0.48 3c0.027 0.399 0.199 0.907 0.52 1.52 0.402 0.773 0.613 1.215 0.64 1.32 0.082 0.293 0.266 0.641 0.559 1.039 0.347 0.508 0.734 0.868 1.16 1.082 0.961 0.453 1.707 0.973 2.242 1.559 0.719 0.668 1.559 1.051 2.52 1.16 1.629 0.106 2.785 0.227 3.48 0.359 0.399 0.082 0.934 0.106 1.598 0.082 0.801 0 1.402 0.012 1.801 0.04 0.48 0.027 0.855 0.144 1.121 0.359 0.238 0.215 0.507 0.32 0.8 0.32 0.454 0 0.774-0.105 0.961-0.32 0.133-0.188 0.2-0.508 0.2-0.961s0.066-1.254 0.199-2.398c0.105-1.176 0.199-1.856 0.281-2.04 0.106-0.214 0.172-0.667 0.199-1.363z"
   inkscape:connector-curvature="0" />
                <path
   id="path494"
   style="fill-rule:evenodd;fill:#717679"
   d="m3.656 16.551c0.344-0.856 0.664-1.774 0.957-2.762 0.321-1.117 0.481-1.918 0.481-2.398 0-0.934-0.199-2.055-0.598-3.36-0.082-0.32-0.043-0.64 0.117-0.961 0.082-0.16 0.16-0.332 0.242-0.519-0.562-0.266-0.921-0.375-1.082-0.321-1.652 0.774-2.773 1.493-3.359 2.161-0.238 1.332-0.281 2.32-0.121 2.961l0.32 1.64c0.11 0.824 0.215 2.199 0.321 4.117l0.039 1.481c0.297-0.188 0.773-0.426 1.441-0.719 0.586-0.348 1-0.785 1.242-1.32z"
   inkscape:connector-curvature="0" />
                <g
   id="g496">
                  <g
   id="g498">
                    <g
   id="g500">
                      <path
   id="path502"
   style="fill-rule:evenodd;fill:url(#linearGradient208)"
   d="m14.215 13.191c0.32 0.829 0.707 1.321 1.16 1.481 0.746 0.238 1.199 0.144 1.359-0.281 0.133-0.321 0.067-0.68-0.199-1.079-0.695-1.066-1.414-1.562-2.16-1.48-0.402 0.051-0.453 0.504-0.16 1.359z"
   inkscape:connector-curvature="0" />
                    </g>
                  </g>
                </g>
                <g
   id="g504">
                  <g
   id="g506">
                    <g
   id="g508">
                      <path
   id="path510"
   style="fill-rule:evenodd;fill:url(#linearGradient218)"
   d="m13.016 9.312c-0.188-0.64-0.403-0.921-0.641-0.843-0.32 0.082-0.402 0.347-0.242 0.801 0.16 0.48 0.469 0.789 0.922 0.921 0.187 0.079 0.172-0.214-0.039-0.879z"
   inkscape:connector-curvature="0" />
                    </g>
                  </g>
                </g>
                <g
   id="g512">
                  <g
   id="g514">
                    <g
   id="g516">
                      <path
   id="path518"
   style="fill-rule:evenodd;fill:url(#linearGradient228)"
   d="m5.773 8.152c0.161 0.504 0.415 0.614 0.762 0.317 0.32-0.266 0.465-0.504 0.438-0.719-0.024-0.238-0.266-0.359-0.719-0.359-0.481 0-0.641 0.254-0.481 0.761z"
   inkscape:connector-curvature="0" />
                    </g>
                  </g>
                </g>
                <g
   id="g520">
                  <g
   id="g522">
                    <g
   id="g524">
                      <path
   id="path526"
   style="fill-rule:evenodd;fill:url(#linearGradient238)"
   d="m2.934 12.91c0.402 0.028 0.707-0.105 0.921-0.398 0.321-0.508 0.184-1.403-0.402-2.68l-0.48-0.203c-0.184-0.078-0.317 0.215-0.399 0.883-0.054 0.824-0.121 1.398-0.199 1.718-0.082 0.454 0.105 0.68 0.559 0.68z"
   inkscape:connector-curvature="0" />
                    </g>
                  </g>
                </g>
                <g
   id="g528">
                  <g
   id="g530">
                    <g
   id="g532">
                      <path
   id="path534"
   style="fill-rule:evenodd;fill:url(#linearGradient248)"
   d="m18.133 3.391c0.242 0.238 0.668 0.492 1.281 0.761 0.402 0.16 0.707 0.118 0.922-0.121 0.184-0.242 0.199-0.469 0.039-0.679-0.293-0.375-0.973-0.508-2.039-0.403-0.402 0.028-0.469 0.176-0.203 0.442z"
   inkscape:connector-curvature="0" />
                    </g>
                  </g>
                </g>
                <g
   id="g536">
                  <g
   id="g538">
                    <g
   id="g540">
                      <path
   id="path542"
   style="fill-rule:evenodd;fill:url(#linearGradient258)"
   d="m21.375 10.312c0.48 0.051 0.68-0.148 0.598-0.601-0.051-0.242-0.184-0.602-0.399-1.082-0.105-0.238-0.375-0.41-0.801-0.52-0.453-0.078-0.8-0.027-1.039 0.161-0.265 0.187-0.199 0.546 0.2 1.082 0.402 0.531 0.882 0.851 1.441 0.96z"
   inkscape:connector-curvature="0" />
                    </g>
                  </g>
                </g>
                <g
   id="g544">
                  <g
   id="g546">
                    <g
   id="g548">
                      <path
   id="path550"
   style="fill-rule:evenodd;fill:url(#linearGradient268)"
   d="m17.215 6.312c0.265 0.586 0.613 0.918 1.039 1 0.453 0.051 0.641-0.136 0.562-0.562-0.054-0.453-0.402-0.785-1.043-1-0.64-0.215-0.824-0.027-0.558 0.562z"
   inkscape:connector-curvature="0" />
                    </g>
                  </g>
                </g>
                <g
   id="g552">
                  <g
   id="g554"
   clip-path="url(#clipPath274)">
                    <g
   id="g556"
   transform="matrix(.04128 -.79896 -.79896 -.04128 -12672 -945.33)">
                      <g
   id="g560"
   mask="url(#mask288)">
                        <path
   id="path562"
   style="fill-rule:evenodd;fill:url(#radialGradient296)"
   d="m20.016 35.75c0-0.453 0.066-1.254 0.199-2.398 0.105-1.176 0.199-1.856 0.281-2.04 0.106-0.214 0.172-0.667 0.199-1.363 0.055-0.719 0.028-1.238-0.082-1.558-0.133-0.453-0.519-1.161-1.16-2.121 0.375-0.879 0.336-1.719-0.117-2.52-0.16-0.266-0.414-0.867-0.762-1.801-0.265-0.691-0.519-1.16-0.758-1.398-0.296-0.293-0.668-0.961-1.121-2-0.402-0.906-0.773-1.426-1.121-1.559-0.933-0.613-1.758-1.148-2.48-1.601-1.332-0.879-2.371-1.321-3.121-1.321-0.774 0-1.598 0.16-2.477 0.481l-1.121 0.48c-0.187 0.985-0.734 1.824-1.641 2.52-0.535 0.426-0.851 0.867-0.961 1.32-0.238 1.012-0.437 1.707-0.597 2.078-0.563 1.121-0.922 1.883-1.082 2.281-0.239 0.614-0.293 1.266-0.16 1.961l0.48 3c0.027 0.399 0.199 0.907 0.52 1.52 0.402 0.773 0.613 1.215 0.64 1.32 0.082 0.293 0.266 0.641 0.559 1.039 0.347 0.508 0.734 0.868 1.16 1.082 0.961 0.453 1.707 0.973 2.242 1.559 0.719 0.668 1.559 1.051 2.52 1.16 1.625 0.106 2.785 0.227 3.48 0.359 0.399 0.082 0.934 0.106 1.598 0.082 0.801 0 1.402 0.012 1.801 0.04 0.48 0.027 0.855 0.144 1.121 0.359 0.238 0.215 0.507 0.32 0.8 0.32 0.454 0 0.774-0.105 0.961-0.32 0.133-0.188 0.2-0.508 0.2-0.961z"
   inkscape:connector-curvature="0" />
                      </g>
                    </g>
                  </g>
                </g>
                <g
   id="g564">
                  <g
   id="g566">
                    <g
   id="g568">
                      <path
   id="path570"
   style="fill-rule:evenodd;fill:url(#linearGradient306)"
   d="m22.734 16.391c0.082-0.188 0.106-0.625 0.082-1.321-0.027-0.668-0.093-1.226-0.203-1.679-0.105-0.426-0.265-0.696-0.48-0.801-0.184-0.078-0.531-0.067-1.039 0.039-0.453 0.082-0.692 0.535-0.719 1.363-0.027 0.692 0.078 1.332 0.32 1.918 0.239 0.535 0.559 0.879 0.961 1.039 0.453 0.188 0.813 0 1.078-0.558z"
   inkscape:connector-curvature="0" />
                    </g>
                  </g>
                </g>
                <g
   id="g572">
                  <g
   id="g574">
                    <g
   id="g576">
                      <path
   id="path578"
   style="fill-rule:evenodd;fill:url(#linearGradient316)"
   d="m18.855 35.672c0.586 0.133 0.758-0.176 0.52-0.922-0.215-0.746-0.613-1.121-1.199-1.121s-0.789 0.297-0.602 0.883c0.188 0.613 0.614 1 1.281 1.16z"
   inkscape:connector-curvature="0" />
                    </g>
                  </g>
                </g>
                <g
   id="g580">
                  <g
   id="g582">
                    <g
   id="g584">
                      <path
   id="path586"
   style="fill-rule:evenodd;fill:url(#linearGradient326)"
   d="m2.574 25.031c-0.613 0.028-0.867 0.52-0.758 1.481 0.079 0.879 0.305 1.48 0.68 1.8 0.32 0.266 0.637 0.118 0.957-0.441 0.32-0.48 0.481-0.945 0.481-1.402 0-0.531-0.051-0.891-0.161-1.078-0.183-0.293-0.585-0.414-1.199-0.36z"
   inkscape:connector-curvature="0" />
                    </g>
                  </g>
                </g>
                <g
   id="g588">
                  <g
   id="g590">
                    <g
   id="g592">
                      <path
   id="path594"
   style="fill-rule:evenodd;fill:url(#linearGradient336)"
   d="m6.453 20.07c0.508 0.426 0.961 0.215 1.363-0.64 0.372-0.852 0.372-1.504 0-1.961-0.589-0.774-1.203-0.653-1.843 0.363-0.477 0.797-0.317 1.547 0.48 2.238z"
   inkscape:connector-curvature="0" />
                    </g>
                  </g>
                </g>
                <g
   id="g596">
                  <g
   id="g598">
                    <g
   id="g600">
                      <path
   id="path602"
   style="fill-rule:evenodd;fill:url(#linearGradient346)"
   d="m7.293 15.152c0.187 0.504 0.547 0.758 1.082 0.758 0.719 0 1.078-0.48 1.078-1.441 0-0.586-0.277-0.985-0.84-1.199-0.558-0.211-0.957-0.079-1.199 0.402-0.238 0.531-0.281 1.023-0.121 1.48z"
   inkscape:connector-curvature="0" />
                    </g>
                  </g>
                </g>
              </g>
            </g>
          </g>
        </g>
      </g>
    </g>
    <g
   id="g604">
      <path
   id="path606"
   style="fill-rule:evenodd;fill:#9fa4a7"
   d="m20.773 25.291c0.481-0.879 0.586-1.813 0.321-2.801-0.266-0.985-0.801-1.758-1.598-2.317-0.828-0.535-1.695-0.695-2.601-0.48-0.907 0.238-1.586 0.785-2.04 1.637-0.48 0.882-0.585 1.816-0.32 2.8 0.266 0.989 0.813 1.762 1.641 2.321 0.797 0.535 1.652 0.695 2.558 0.48 0.907-0.238 1.586-0.785 2.039-1.64z"
   inkscape:connector-curvature="0" />
      <path
   id="path608"
   style="fill-rule:evenodd;fill:#e5e9ea"
   d="m19.656 25.291c0.504-0.532 0.758-1.172 0.758-1.918 0-0.747-0.254-1.375-0.758-1.883-0.535-0.531-1.16-0.797-1.883-0.797-0.746 0-1.371 0.266-1.878 0.797-0.508 0.508-0.762 1.136-0.762 1.883 0 0.746 0.254 1.386 0.762 1.918 0.507 0.535 1.132 0.8 1.878 0.8 0.723 0 1.348-0.265 1.883-0.8z"
   inkscape:connector-curvature="0" />
      <path
   id="path610"
   style="fill-rule:evenodd;fill:#9fa4a7"
   d="m11.816 26.013c0.692-0.722 1.039-1.601 1.039-2.64 0-1.016-0.347-1.895-1.039-2.641-0.695-0.719-1.535-1.082-2.523-1.082-0.984 0-1.824 0.363-2.52 1.082-0.691 0.746-1.039 1.625-1.039 2.641 0 1.039 0.348 1.918 1.039 2.64 0.696 0.719 1.536 1.078 2.52 1.078 0.988 0 1.828-0.359 2.523-1.078z"
   inkscape:connector-curvature="0" />
      <path
   id="path612"
   style="fill-rule:evenodd;fill:#e5e9ea"
   d="m11.176 25.291c0.504-0.532 0.758-1.172 0.758-1.918 0-0.747-0.254-1.375-0.758-1.883-0.535-0.531-1.16-0.797-1.883-0.797-0.746 0-1.371 0.266-1.879 0.797-0.508 0.508-0.758 1.136-0.758 1.883 0 0.746 0.25 1.386 0.758 1.918 0.508 0.535 1.133 0.8 1.879 0.8 0.723 0 1.348-0.265 1.883-0.8z"
   inkscape:connector-curvature="0" />
      <path
   id="path614"
   style="fill-rule:evenodd;fill:#292a2c"
   d="m19.016 24.611c0.32-0.348 0.48-0.758 0.48-1.238 0-0.481-0.16-0.895-0.48-1.243-0.321-0.343-0.707-0.519-1.161-0.519-0.453 0-0.839 0.172-1.16 0.519-0.32 0.348-0.48 0.762-0.48 1.243 0 0.48 0.16 0.89 0.48 1.238 0.321 0.348 0.707 0.519 1.16 0.519 0.454 0 0.84-0.171 1.161-0.519z"
   inkscape:connector-curvature="0" />
      <path
   id="path616"
   style="fill-rule:evenodd;fill:#ffffff"
   d="m16.934 24.13c-0.321-0.531-0.664-0.707-1.039-0.519-0.161 0.082-0.239 0.226-0.239 0.441-0.027 0.211 0.024 0.438 0.16 0.68 0.317 0.531 0.664 0.707 1.039 0.519 0.133-0.078 0.211-0.226 0.239-0.441 0.027-0.238-0.028-0.465-0.16-0.68z"
   inkscape:connector-curvature="0" />
      <path
   id="path618"
   style="fill-rule:evenodd;fill:#292a2c"
   d="m10.496 24.611c0.32-0.348 0.481-0.758 0.481-1.238 0-0.481-0.161-0.895-0.481-1.243-0.32-0.343-0.707-0.519-1.16-0.519s-0.84 0.176-1.16 0.519c-0.321 0.348-0.481 0.762-0.481 1.243 0 0.48 0.16 0.89 0.481 1.238 0.32 0.348 0.707 0.519 1.16 0.519s0.84-0.171 1.16-0.519z"
   inkscape:connector-curvature="0" />
      <path
   id="path620"
   style="fill-rule:evenodd;fill:#ffffff"
   d="m8.656 24.212c-0.347-0.535-0.695-0.707-1.043-0.519-0.32 0.238-0.343 0.625-0.078 1.16 0.348 0.531 0.692 0.691 1.039 0.477 0.133-0.079 0.215-0.223 0.242-0.438 0.024-0.242-0.027-0.469-0.16-0.68z"
   inkscape:connector-curvature="0" />
      <path
   id="path622"
   style="fill-rule:evenodd;fill:#5c6165"
   d="m19.336 31.533c0.637-0.188 1.051-0.387 1.238-0.602 0.426-0.535 0.641-1.187 0.641-1.961l0.078-1.719c-0.426 0.375-0.746 0.559-0.957 0.559-0.774 0.082-1.336 0.215-1.68 0.402-0.187 0.106-0.574 0.227-1.16 0.36-0.855 0.187-1.336 0.293-1.441 0.32-0.508 0.16-0.922 0.332-1.239 0.52l-0.32 0.238c0.024 0.32 0.106 0.641 0.238 0.961l1.121 0.562c0.852 0.371 1.465 0.571 1.84 0.598 0.481 0.027 1.028-0.055 1.641-0.238z"
   inkscape:connector-curvature="0" />
      <path
   id="path624"
   style="fill-rule:evenodd;fill:#797e82"
   d="m19.055 32.373c0.347-0.243 0.785-0.536 1.32-0.883 0.586-0.399 0.867-0.891 0.84-1.477-0.027-0.48-0.149-0.922-0.36-1.32l-1.16-0.043c-0.265 0-0.652 0.066-1.16 0.203-0.64 0.211-1.039 0.332-1.199 0.359-1.656 0.106-2.602 0.254-2.84 0.438-0.16 0.109-0.203 0.402-0.121 0.883 0.105 0.531 0.16 0.84 0.16 0.918 0 0.562 0.121 0.922 0.36 1.082 0.132 0.105 0.441 0.226 0.921 0.359 0.532 0.106 0.957 0.145 1.278 0.121 0.613-0.027 1.269-0.242 1.961-0.64z"
   inkscape:connector-curvature="0" />
      <path
   id="path626"
   style="fill-rule:evenodd;fill:#c2c7ca"
   d="m19.055 32.373c0.347-0.243 0.785-0.536 1.32-0.883 0.375-0.239 0.625-0.504 0.758-0.797l-0.199-0.043-0.559-0.039-0.32-0.281c-1.039 0.269-1.867 0.546-2.481 0.843-0.398 0.157-0.945 0.239-1.64 0.239l-0.961-0.082-0.438 0.32c0.133 0.508 0.254 0.801 0.36 0.883 0.132 0.105 0.441 0.226 0.921 0.359 0.532 0.106 0.957 0.145 1.278 0.121 0.613-0.027 1.269-0.242 1.961-0.64z"
   inkscape:connector-curvature="0" />
      <path
   id="path628"
   style="fill-rule:evenodd;fill:#94999d"
   d="m18.934 32.052c0.586-0.32 1.254-0.789 2-1.402l-0.321-1c-0.133-0.266-0.304-0.41-0.519-0.438-0.239 0.028-0.465 0.094-0.68 0.2-0.105 0.078-0.238 0.121-0.398 0.121-0.215 0.023-0.387 0.066-0.52 0.117-0.641 0.16-1.363 0.269-2.16 0.32-0.508 0-0.883 0.094-1.121 0.281-0.027 0.133-0.055 0.305-0.082 0.52 0 0.375 0.094 0.68 0.281 0.922 0.402 0.48 1.016 0.746 1.84 0.797 0.426 0.027 0.988-0.117 1.68-0.438z"
   inkscape:connector-curvature="0" />
      <path
   id="path630"
   style="fill-rule:evenodd;fill:#c2c7ca"
   d="m15.773 32.052c0.082-0.054 0.067-0.254-0.039-0.601l-0.359-1.2c-0.375-0.347-0.707-0.48-1-0.398-0.055 0.238 0 0.773 0.16 1.598l0.121 0.879c0.106 0.136 0.199 0.187 0.278 0.16 0.054 0 0.187-0.078 0.402-0.239 0.133-0.105 0.277-0.171 0.437-0.199z"
   inkscape:connector-curvature="0" />
      <path
   id="path632"
   style="fill-rule:evenodd;fill:#c2c7ca"
   d="m15.453 30.892c0.188 0.586 0.309 0.961 0.363 1.121 0.051-0.109 0.024-0.297-0.082-0.562l-0.359-1.2c-0.375-0.32-0.695-0.453-0.961-0.398 0.426 0.16 0.774 0.504 1.039 1.039z"
   inkscape:connector-curvature="0" />
      <path
   id="path634"
   style="fill-rule:evenodd;fill:#e1cbb8"
   d="m5.234 25.732c0.164 0.023 0.301 0.055 0.422 0.098-0.109-0.039-0.234-0.075-0.383-0.098h-0.039z"
   inkscape:connector-curvature="0" />
      <path
   id="path636"
   style="fill-rule:evenodd;fill:#c2c7ca"
   d="m5.234 25.732h-0.019l-0.082 0.078h0.023l-0.043 0.043c-0.062 0.047-0.121 0.117-0.179 0.199-0.207 0.324-0.25 0.75-0.122 1.278 0.043 0.171 0.083 0.316 0.122 0.441 0.058 0.191 0.125 0.324 0.199 0.402 0.746 1.012 1.308 1.614 1.679 1.797 0.911 0.426 1.723 0.614 2.442 0.563 0.23-0.028 0.445-0.078 0.641-0.16l-0.239-0.442c-0.269 0.293-0.734 0.348-1.402 0.16-0.664-0.187-1.348-0.695-2.039-1.519-0.11-0.133-0.231-0.293-0.36-0.481l0.04-1 0.238-0.761-0.117-0.18-0.043-0.059c-0.012-0.023-0.028-0.05-0.039-0.078l-0.039-0.043-0.239-0.14c-0.121-0.043-0.258-0.075-0.422-0.098z"
   inkscape:connector-curvature="0" />
      <path
   id="path638"
   style="fill-rule:evenodd;fill:#94999d"
   d="m6.016 26.15 0.117 0.18-0.238 0.761-0.04 1c0.129 0.188 0.25 0.348 0.36 0.481 0.691 0.824 1.375 1.332 2.039 1.519 0.668 0.188 1.133 0.133 1.402-0.16l-0.082-1.039c0-0.293-0.066-0.574-0.199-0.84-0.055-0.105-0.402-0.308-1.039-0.601-0.961-0.426-1.656-0.801-2.082-1.121-0.094-0.071-0.176-0.133-0.238-0.18z"
   inkscape:connector-curvature="0" />
      <path
   id="path640"
   style="fill-rule:evenodd;fill:#797e82"
   d="m9.254 30.533c0.297-0.028 0.531-0.082 0.699-0.16 0.176-0.082 0.289-0.188 0.34-0.321 0.453-1.226 0.441-2.039-0.039-2.441-0.215-0.16-0.641-0.348-1.281-0.559-0.797-0.293-1.438-0.562-1.918-0.801-0.719-0.375-1.215-0.574-1.481-0.601-0.105 0-0.207 0.027-0.301 0.082 0.149 0.023 0.274 0.059 0.383 0.098l0.239 0.14 0.039 0.043c0.011 0.028 0.027 0.055 0.039 0.078l0.043 0.059c0.062 0.047 0.144 0.109 0.238 0.18 0.426 0.32 1.121 0.695 2.082 1.121 0.637 0.293 0.984 0.496 1.039 0.601 0.133 0.266 0.199 0.547 0.199 0.84l0.082 1.039 0.239 0.442c-0.196 0.082-0.411 0.132-0.641 0.16z"
   inkscape:connector-curvature="0" />
      <path
   id="path642"
   style="fill-rule:evenodd;fill:#5c6165"
   d="m5.215 25.732h0.058c0.094-0.055 0.196-0.082 0.301-0.082 0.266 0.027 0.762 0.226 1.481 0.601 0.48 0.239 1.121 0.508 1.918 0.801 0.64 0.211 1.066 0.399 1.281 0.559 0.48 0.402 0.492 1.215 0.039 2.441-0.051 0.133-0.164 0.239-0.34 0.321 0.223-0.024 0.426-0.145 0.621-0.36 0.215-0.269 0.36-0.59 0.442-0.961 0.105-0.508 0.265-1 0.48-1.48-0.137-0.426-0.414-0.696-0.84-0.801-1.386-0.375-2.094-0.559-2.121-0.559-0.105 0-0.426-0.093-0.961-0.281-0.535-0.187-0.961-0.293-1.281-0.32s-0.598-0.012-0.84 0.039l-0.238 0.082z"
   inkscape:connector-curvature="0" />
    </g>
  </g>
<metadata
   id="metadata265"><rdf:RDF><cc:Work><dc:format>image/svg+xml</dc:format><dc:type
         rdf:resource="http://purl.org/dc/dcmitype/StillImage" /><cc:license
         rdf:resource="http://creativecommons.org/publicdomain/zero/1.0/" /><dc:publisher><cc:Agent
           rdf:about="http://openclipart.org/"><dc:title>Openclipart</dc:title></cc:Agent></dc:publisher></cc:Work><cc:License
       rdf:about="http://creativecommons.org/licenses/publicdomain/"><cc:permits
         rdf:resource="http://creativecommons.org/ns#Reproduction" /><cc:permits
         rdf:resource="http://creativecommons.org/ns#Distribution" /><cc:permits
         rdf:resource="http://creativecommons.org/ns#DerivativeWorks" /></cc:License></rdf:RDF></metadata></svg>
