<?xml version="1.0" encoding="UTF-8" standalone="no"?>
<!-- Created with Inkscape (http://www.inkscape.org/) -->
<svg xmlns:dc="http://purl.org/dc/elements/1.1/" xmlns:inkscape="http://www.inkscape.org/namespaces/inkscape" xmlns:xlink="http://www.w3.org/1999/xlink" xmlns:sodipodi="http://sodipodi.sourceforge.net/DTD/sodipodi-0.dtd" xmlns:cc="http://creativecommons.org/ns#" xmlns:rdf="http://www.w3.org/1999/02/22-rdf-syntax-ns#" xmlns="http://www.w3.org/2000/svg" xmlns:svg="http://www.w3.org/2000/svg" xmlns:ns1="http://sozi.baierouge.fr" id="svg2" sodipodi:modified="TRUE" viewBox="0 0 300 300" sodipodi:docbase="D:\gfx" inkscape:export-ydpi="48" inkscape:export-xdpi="48" version="1.0" inkscape:output_extension="org.inkscape.output.svg.inkscape" sodipodi:docname="book.svg" inkscape:export-filename="D:\proj\book.png" inkscape:version="0.46" sodipodi:version="0.32">
  <defs id="defs4">
    <linearGradient id="linearGradient3400">
      <stop id="stop3402" style="stop-color:#ce5c00" offset="0"/>
      <stop id="stop3404" style="stop-color:#934100" offset="1"/>
    </linearGradient>
    <linearGradient id="linearGradient3384">
      <stop id="stop3386" style="stop-color:#65c507" offset="0"/>
      <stop id="stop3388" style="stop-color:#3e7a04" offset="1"/>
    </linearGradient>
    <linearGradient id="linearGradient2407" y2="15.548" xlink:href="#linearGradient3400" gradientUnits="userSpaceOnUse" x2="2.643" gradientTransform="matrix(12.786 0 0 12.786 93.4 51.855)" y1="11.031" x1="4.0993" inkscape:collect="always"/>
    <linearGradient id="linearGradient2410" y2="15.212" xlink:href="#linearGradient3400" gradientUnits="userSpaceOnUse" x2="2.6117" gradientTransform="matrix(12.786 0 0 12.786 -6.1876 -48.683)" y1="11.031" x1="4.0149" inkscape:collect="always"/>
    <linearGradient id="linearGradient2413" y2="14.43" xlink:href="#linearGradient3400" gradientUnits="userSpaceOnUse" x2="2.5" gradientTransform="matrix(12.786 0 0 12.786 -25.823 -67.892)" y1="11.031" x1="4.0149" inkscape:collect="always"/>
    <linearGradient id="linearGradient2422" y2="20" xlink:href="#linearGradient3384" gradientUnits="userSpaceOnUse" x2="5.9851" gradientTransform="matrix(12.786 0 0 12.786 -25.831 -67.354)" y1="16.171" x1="8.8476" inkscape:collect="always"/>
    <linearGradient id="linearGradient2425" y2="22.734" xlink:href="#linearGradient3384" gradientUnits="userSpaceOnUse" x2="39.733" gradientTransform="matrix(12.786 0 0 12.786 -25.831 -67.354)" y1="5.438" x1="2.1175" inkscape:collect="always"/>
    <linearGradient id="linearGradient2443" y2="150.58" xlink:href="#linearGradient3400" gradientUnits="userSpaceOnUse" x2="258.93" y1="72.083" x1="25.25" inkscape:collect="always"/>
    <linearGradient id="linearGradient2469" y2="37.461" xlink:href="#linearGradient3400" gradientUnits="userSpaceOnUse" x2="210.41" y1="21.156" x1="139.81" inkscape:collect="always"/>
    <linearGradient id="linearGradient2483" y2="152" xlink:href="#linearGradient3400" gradientUnits="userSpaceOnUse" x2="287.44" y1="120.07" x1="258.81" inkscape:collect="always"/>
  </defs>
  <sodipodi:namedview id="base" inkscape:zoom="2.69" height="30px" borderopacity="1.0" inkscape:current-layer="layer1" inkscape:cx="150" inkscape:cy="150" inkscape:grid-points="true" showgrid="false" width="30px" inkscape:snap-global="false" showguides="true" bordercolor="#666666" inkscape:window-x="1" inkscape:window-y="20" inkscape:window-width="1679" inkscape:pageopacity="0.0" inkscape:pageshadow="2" pagecolor="#ffffff" gridtolerance="10000" inkscape:document-units="px" inkscape:window-height="1003">
    <inkscape:grid id="grid2395" visible="true" type="xygrid" enabled="true"/>
  </sodipodi:namedview>
  <g id="layer1" inkscape:label="Calque 1" inkscape:groupmode="layer">
    <rect id="rect3465" style="fill:#427bc3" ry="0" height="0" width="6" y="12.5" x="16"/>
    <path id="path2541" sodipodi:nodetypes="ccccc" style="fill:#4e9a06" d="m25.311 159.51l140.64-63.932 127.92 127.44-15.22 9.21-253.34-72.72z"/>
    <path id="rect2524" sodipodi:nodetypes="ccccc" style="fill:url(#linearGradient2425)" d="m25.311 73.287l140.64-63.928 127.86 126.51-140.64 65.27-127.86-127.85z"/>
    <path id="path2527" sodipodi:nodetypes="ccccc" style="fill:url(#linearGradient2422)" d="m25.311 162.79c-25.571-25.58-25.571-63.932 0-89.503l127.86 127.85c-25.57 25.57-25.57 63.93 0 89.5l-127.86-127.85z"/>
    <path id="path2529" sodipodi:nodetypes="ccccccccc" style="fill:#73d216" d="m293.81 135.7l-140.64 65.44c-25.57 25.57-25.57 63.93 0 89.5l140.64-63.93v-3.78l-12.99 5.95 0.2-82.21 12.79-6.39v-4.58z"/>
    <path id="path2569" style="fill:#a40000" d="m147.31 38.927c-0.28 0.108-0.55 0.242-0.8 0.4l-70.321 31.964c-1.345 0.699-2.278 1.995-2.515 3.493-0.236 1.497 0.252 3.018 1.316 4.098l19.978 19.977c1.327 1.421 3.38 1.891 5.192 1.201l70.32-31.966c1.35-0.699 2.28-1.996 2.52-3.493 0.23-1.498-0.25-3.018-1.32-4.098l-19.98-19.978c-1.08-1.262-2.75-1.868-4.39-1.598z"/>
    <path id="path2546" style="fill:#ce5c00" d="m149.17 43.72l-70.319 31.964 19.977 19.977 70.322-31.963-19.98-19.978z"/>
    <path id="path2564" sodipodi:nodetypes="ccccc" style="fill:#888a85" d="m281.02 146.55l-124.69 59.12c-20.32 20.97-19.5 61.67 0.61 78.26l124.08-55.16v-82.22z"/>
    <path id="rect2571" style="fill:#d3d7cf" d="m281.02 150l-127.85 63.93 127.85-57.94v-5.99zm0 12.79l-127.85 63.92 127.85-57.93v-5.99zm0 12.78l-127.85 63.93 127.85-57.94v-5.99zm0 12.79l-127.85 63.92 127.85-57.93v-5.99zm0 12.78l-127.85 63.93 127.85-57.93v-6zm0 12.79l-127.85 63.93 127.85-57.94v-5.99z"/>
    <path id="path2485" style="fill-rule:evenodd;fill:#2e3436" d="m153.38 56.625c-0.59-0.166-1.25-0.141-1.82 0.063-3.37 1.915-5.62 5.676-9.47 8.093-0.14 0.089-0.3 0.143-0.47 0.157-3.88 0.403-7.51-0.521-10.74 0.406-0.03 0.011-0.05 0.021-0.07 0.031-4.18 0.886-7.75 3.761-10 7.437-0.01 0.022-0.02 0.043-0.03 0.063-1.56 2.212-3.88 4.643-7.12 4.813-0.99 0.48-2 0.602-2.85 0.312-0.9-0.311-1.59-0.931-2.19-1.531-1.19-1.201-2.16-2.362-3.09-2.563-0.08-0.023-0.15-0.054-0.22-0.094-1.67-0.799-3.8-1.163-5.685-0.874-1.888 0.288-3.506 1.181-4.469 2.843-1.256 2.145-1.423 4.871-1.312 7.563 0.005 0.161-0.027 0.322-0.094 0.468-0.393 0.838-0.067 2.073 0.688 2.876 0.377 0.401 0.839 0.666 1.25 0.75 0.41 0.083 0.791 0.043 1.25-0.282 0.832-0.567 1.141-1.331 1.281-2.375 0.133-0.997 0.049-2.205 0.031-3.375-0.008-0.055 0.006-0.101 0-0.156-0.128-1.132 0.106-2.149 0.719-2.844 0.642-0.728 1.581-1.04 2.471-1.062 1.77-0.044 3.66 0.885 4.56 2.625v0.062c0.58 1.317 1.7 2.144 3.03 2.531 1.34 0.388 2.89 0.289 4.19-0.281 0.03-0.022 0.06-0.043 0.09-0.062 3.51-1.089 7.21-1.472 9.03-4.157 0.03-0.043 0.06-0.085 0.1-0.124 1.2-1.303 2.29-3.066 3.62-4.688s2.99-3.136 5.35-3.656c4.45-1.022 8.66 0.444 12.25-0.594 2.9-1.471 5.17-4.082 7.43-6.719 0.15-0.155 0.33-0.264 0.53-0.312 1.06-0.253 2.54-1.041 3.29-1.875 0.37-0.418 0.53-0.81 0.56-1.156 0.02-0.347-0.06-0.714-0.53-1.25l-0.03-0.063c-0.37-0.478-0.93-0.826-1.53-1z"/>
    <path id="path3376" style="fill:url(#linearGradient2413)" d="m25.319 73.149c-25.571 25.571-25.571 63.931 0 89.501l8.79 8.39c-25.496-25.5-25.347-63.53 0-89.101l-8.79-8.79z"/>
    <path id="path3408" style="fill:url(#linearGradient2410)" d="m44.955 92.357c-25.572 25.573-25.572 63.933 0 89.503l8.79 8.39c-25.497-25.5-25.347-63.53 0-89.1l-8.79-8.793z"/>
    <path id="path3412" sodipodi:nodetypes="ccccc" style="fill:url(#linearGradient2407)" d="m145.05 192.9c-25.57 25.57-26.08 63.92-0.51 89.49l8.79 8.39c-25.49-25.49-25.34-64.2 0-89.77l-8.28-8.11z"/>
    <path id="path2428" sodipodi:nodetypes="ccccc" style="fill:url(#linearGradient2443)" d="m25.25 73.219l127.84 127.87 4.79-2.21-127.63-127.66-5 1.999z"/>
    <path id="path2454" sodipodi:nodetypes="cccc" style="fill:url(#linearGradient2483)" d="m271.91 114.22l-13.1 37.78 34.91-16.19-21.81-21.59z"/>
    <path id="path2445" sodipodi:nodetypes="cccc" style="fill:url(#linearGradient2469)" d="m165.88 9.3125l-26.07 11.844 50 11.844-23.93-23.688z"/>
  </g>
  <metadata>
    <rdf:RDF>
      <cc:Work>
        <dc:format>image/svg+xml</dc:format>
        <dc:type rdf:resource="http://purl.org/dc/dcmitype/StillImage"/>
        <cc:license rdf:resource="http://creativecommons.org/licenses/publicdomain/"/>
        <dc:publisher>
          <cc:Agent rdf:about="http://openclipart.org/">
            <dc:title>Openclipart</dc:title>
          </cc:Agent>
        </dc:publisher>
        <dc:title>book</dc:title>
        <dc:date>2008-05-26T11:36:42</dc:date>
        <dc:description/>
        <dc:source>https://openclipart.org/detail/16972/book-by-jean_victor_balin</dc:source>
        <dc:creator>
          <cc:Agent>
            <dc:title>jean_victor_balin</dc:title>
          </cc:Agent>
        </dc:creator>
        <dc:subject>
          <rdf:Bag>
            <rdf:li>book</rdf:li>
            <rdf:li>education</rdf:li>
            <rdf:li>knowledge</rdf:li>
            <rdf:li>library</rdf:li>
            <rdf:li>reading</rdf:li>
            <rdf:li>school</rdf:li>
          </rdf:Bag>
        </dc:subject>
      </cc:Work>
      <cc:License rdf:about="http://creativecommons.org/licenses/publicdomain/">
        <cc:permits rdf:resource="http://creativecommons.org/ns#Reproduction"/>
        <cc:permits rdf:resource="http://creativecommons.org/ns#Distribution"/>
        <cc:permits rdf:resource="http://creativecommons.org/ns#DerivativeWorks"/>
      </cc:License>
    </rdf:RDF>
  </metadata>
</svg>