<?xml version="1.0" encoding="UTF-8" standalone="no"?>
<!-- Created with Inkscape (http://www.inkscape.org/) -->
<svg xmlns:inkscape="http://www.inkscape.org/namespaces/inkscape" xmlns:rdf="http://www.w3.org/1999/02/22-rdf-syntax-ns#" xmlns="http://www.w3.org/2000/svg" xmlns:xlink="http://www.w3.org/1999/xlink" xmlns:ns1="http://sozi.baierouge.fr" xmlns:cc="http://creativecommons.org/ns#" xmlns:sodipodi="http://sodipodi.sourceforge.net/DTD/sodipodi-0.dtd" xmlns:dc="http://purl.org/dc/elements/1.1/" id="svg2" xml:space="preserve" viewBox="0 0 51.2 48.685" version="1.1" inkscape:version="0.91 r13725">
  <defs id="defs6">
    <linearGradient id="linearGradient24" y2="5.9854" gradientUnits="userSpaceOnUse" x2="98.558" gradientTransform="matrix(.79944 -.03016 -1.9831 -.72576 .00039811 38.96)" y1="5.9854" x1="38.24">
      <stop id="stop26" style="stop-color:#e3efff" offset="0"/>
      <stop id="stop28" style="stop-color:#bfcfe5" offset=".55290"/>
      <stop id="stop32" style="stop-color:#e4f0ff" offset="1"/>
    </linearGradient>
    <linearGradient id="linearGradient46" y2="10.5" gradientUnits="userSpaceOnUse" x2="51.2" gradientTransform="matrix(.8 0 0 -.8 0 38.96)" y1="10.5">
      <stop id="stop48" style="stop-color:#89bafd" offset="0"/>
      <stop id="stop50" style="stop-color:#5c91de" offset="0.502"/>
      <stop id="stop52" style="stop-color:#89bafd" offset="1"/>
    </linearGradient>
    <linearGradient id="linearGradient66" y2="8.0459" gradientUnits="userSpaceOnUse" x2="98.44" gradientTransform="matrix(.79944 -.03016 -1.9819 -.72576 .00076804 38.96)" y1="8.0459" x1="38.147">
      <stop id="stop68" style="stop-color:#e3efff" offset="0"/>
      <stop id="stop70" style="stop-color:#bfcfe5" offset=".55290"/>
      <stop id="stop74" style="stop-color:#e4f0ff" offset="1"/>
    </linearGradient>
    <linearGradient id="linearGradient92" y2="-40.972" gradientUnits="userSpaceOnUse" x2="42.387" gradientTransform="matrix(.01136 -.79992 -.79992 -.01136 -.00019626 38.96)" y1="-40.972" x1="14.284">
      <stop id="stop94" style="stop-color:#d8ad1c" offset="0"/>
      <stop id="stop96" style="stop-color:#f4d64a" offset=".49020"/>
      <stop id="stop98" style="stop-color:#d3a81b" offset=".78040"/>
      <stop id="stop100" style="stop-color:#b79116" offset="1"/>
    </linearGradient>
    <linearGradient id="linearGradient114" y2="4.7085" gradientUnits="userSpaceOnUse" x2="41.127" gradientTransform="matrix(.7868 -.1448 -.1448 -.7868 -.000068915 38.96)" y1="4.7085" x1="15.707">
      <stop id="stop116" style="stop-color:#f4d95e" offset="0"/>
      <stop id="stop118" style="stop-color:#f4d64a" offset=".49020"/>
      <stop id="stop120" style="stop-color:#d3a81b" offset=".78040"/>
      <stop id="stop122" style="stop-color:#b79116" offset="1"/>
    </linearGradient>
    <linearGradient id="linearGradient136" y2="-35.617" gradientUnits="userSpaceOnUse" x2="27.223" gradientTransform="matrix(.17824 -.77992 -.77992 -.17824 -.00014550 38.96)" y1="-35.617" x1="20.043">
      <stop id="stop138" style="stop-color:#3e6298" offset="0"/>
      <stop id="stop140" style="stop-color:#33517c" offset="1"/>
    </linearGradient>
    <linearGradient id="linearGradient156" y2="-44.299" gradientUnits="userSpaceOnUse" x2="45.082" gradientTransform="matrix(.000025118 -.8 -.8 .0008 -.00033216 38.96)" y1="-44.299" x1="13.232">
      <stop id="stop158" style="stop-color:#a2afbf" offset="0"/>
      <stop id="stop160" style="stop-color:#8da1b9" offset="1"/>
    </linearGradient>
    <linearGradient id="linearGradient174" y2="-39.749" gradientUnits="userSpaceOnUse" x2="42.523" gradientTransform="matrix(.000035516 -.8 -.8 .0008 .0002186 38.96)" y1="-39.749" x1="19.998">
      <stop id="stop176" style="stop-color:#385989" offset="0"/>
      <stop id="stop178" style="stop-color:#33517c" offset="1"/>
    </linearGradient>
    <linearGradient id="linearGradient192" y2="-47.249" gradientUnits="userSpaceOnUse" x2="45.077" gradientTransform="matrix(.000025118 -.8 -.8 .0008 -.00033216 38.96)" y1="-47.249" x1="13.228">
      <stop id="stop194" style="stop-color:#a2afbf" offset="0"/>
      <stop id="stop196" style="stop-color:#8da1b9" offset="1"/>
    </linearGradient>
    <linearGradient id="linearGradient210" y2="-49.548" gradientUnits="userSpaceOnUse" x2="45.076" gradientTransform="matrix(.000025118 -.8 -.8 .0008 -.00033216 38.96)" y1="-49.548" x1="13.226">
      <stop id="stop212" style="stop-color:#a2afbf" offset="0"/>
      <stop id="stop214" style="stop-color:#8da1b9" offset="1"/>
    </linearGradient>
    <linearGradient id="linearGradient228" y2="-43.298" gradientUnits="userSpaceOnUse" x2="45.082" gradientTransform="matrix(.000025118 -.8 -.8 .0008 -.00033216 38.96)" y1="-43.298" x1="13.232">
      <stop id="stop230" style="stop-color:#a2afbf" offset="0"/>
      <stop id="stop232" style="stop-color:#8da1b9" offset="1"/>
    </linearGradient>
    <linearGradient id="linearGradient246" y2="-31.818" gradientUnits="userSpaceOnUse" x2="9.5397" gradientTransform="matrix(.01456 -.79984 -.79984 -.01456 -.00013627 38.96)" y1="-31.818" x1="5.4141">
      <stop id="stop248" style="stop-color:#d8ad1c" offset="0"/>
      <stop id="stop250" style="stop-color:#f4d64a" offset=".49020"/>
      <stop id="stop252" style="stop-color:#d3a81b" offset=".78040"/>
      <stop id="stop254" style="stop-color:#b79116" offset="1"/>
    </linearGradient>
    <linearGradient id="linearGradient270" y2="7" gradientUnits="userSpaceOnUse" x2="35.4" gradientTransform="matrix(.8 0 0 -.8 0 38.96)" y1="7" x1="27.1">
      <stop id="stop272" style="stop-color:#756321" offset="0"/>
      <stop id="stop274" style="stop-color:#d3a81b" offset=".78040"/>
      <stop id="stop276" style="stop-color:#b79116" offset="1"/>
    </linearGradient>
    <linearGradient id="linearGradient292" y2="9.9634" gradientUnits="userSpaceOnUse" x2="97.915" gradientTransform="matrix(.79944 -.03016 -1.9831 -.72576 .00039811 38.96)" y1="9.9634" x1="37.597">
      <stop id="stop294" style="stop-color:#e3efff" offset="0"/>
      <stop id="stop296" style="stop-color:#bfcfe5" offset=".55290"/>
      <stop id="stop300" style="stop-color:#e4f0ff" offset="1"/>
    </linearGradient>
    <linearGradient id="linearGradient314" y2="-24.29" gradientUnits="userSpaceOnUse" x2="7.2769" gradientTransform="matrix(.01688 -.79984 -.79984 -.01688 .00035050 38.96)" y1="-24.29" x1="1.3506">
      <stop id="stop316" style="stop-color:#d8ad1c" offset="0"/>
      <stop id="stop318" style="stop-color:#f4d64a" offset=".49020"/>
      <stop id="stop320" style="stop-color:#d3a81b" offset=".78040"/>
      <stop id="stop322" style="stop-color:#b79116" offset="1"/>
    </linearGradient>
    <linearGradient id="linearGradient336" y2="4.75" gradientUnits="userSpaceOnUse" x2="26.312" gradientTransform="matrix(.8 0 0 -.8 0 38.96)" y1="4.75" x1="21.087">
      <stop id="stop338" style="stop-color:#756321" offset="0"/>
      <stop id="stop340" style="stop-color:#d3a81b" offset=".78040"/>
      <stop id="stop342" style="stop-color:#b79116" offset="1"/>
    </linearGradient>
    <linearGradient id="linearGradient356" y2="5.1372" gradientUnits="userSpaceOnUse" x2="98.543" gradientTransform="matrix(.79944 -.03016 -1.9809 -.72576 .00067058 38.96)" y1="5.1372" x1="38.25">
      <stop id="stop358" style="stop-color:#e3efff" offset="0"/>
      <stop id="stop360" style="stop-color:#bfcfe5" offset=".55290"/>
      <stop id="stop364" style="stop-color:#e4f0ff" offset="1"/>
    </linearGradient>
    <linearGradient id="linearGradient378" y2="-20.218" gradientUnits="userSpaceOnUse" x2="9.0926" gradientTransform="matrix(.01488 -.79984 -.79984 -.01488 .000008796 38.96)" y1="-20.218" x1="5.0669">
      <stop id="stop380" style="stop-color:#d8ad1c" offset="0"/>
      <stop id="stop382" style="stop-color:#f4d64a" offset=".49020"/>
      <stop id="stop384" style="stop-color:#d3a81b" offset=".78040"/>
      <stop id="stop386" style="stop-color:#b79116" offset="1"/>
    </linearGradient>
    <linearGradient id="linearGradient400" y2="-25.338" gradientUnits="userSpaceOnUse" x2="11.973" gradientTransform="matrix(.0172 -.79984 -.79984 -.0172 -.00038138 38.96)" y1="-25.338" x1="7.3218">
      <stop id="stop402" style="stop-color:#d8ad1c" offset="0"/>
      <stop id="stop404" style="stop-color:#f4d64a" offset=".49020"/>
      <stop id="stop406" style="stop-color:#d3a81b" offset=".78040"/>
      <stop id="stop408" style="stop-color:#b79116" offset="1"/>
    </linearGradient>
    <linearGradient id="linearGradient422" y2="7.603" gradientUnits="userSpaceOnUse" x2="24.65" gradientTransform="matrix(.8 0 0 -.8 0 38.96)" y1="7.603" x1="16.85">
      <stop id="stop424" style="stop-color:#756321" offset="0"/>
      <stop id="stop426" style="stop-color:#d3a81b" offset=".78040"/>
      <stop id="stop428" style="stop-color:#b79116" offset="1"/>
    </linearGradient>
    <linearGradient id="linearGradient442" y2="17.156" gradientUnits="userSpaceOnUse" x2="26.476" gradientTransform="matrix(.74848 .2824 .2824 -.74848 -.000050450 38.96)" y1="17.156" x1="10.043">
      <stop id="stop444" style="stop-color:#f4d95e" offset="0"/>
      <stop id="stop446" style="stop-color:#f4d64a" offset=".49020"/>
      <stop id="stop448" style="stop-color:#d3a81b" offset=".98040"/>
      <stop id="stop450" style="stop-color:#d3a81b" offset="1"/>
    </linearGradient>
    <linearGradient id="linearGradient464" y2="13.562" gradientUnits="userSpaceOnUse" x2="96.991" gradientTransform="matrix(.79944 -.03016 -1.9831 -.72576 .00039811 38.96)" y1="13.562" x1="36.673">
      <stop id="stop466" style="stop-color:#e3efff" offset="0"/>
      <stop id="stop468" style="stop-color:#bfcfe5" offset=".55290"/>
      <stop id="stop472" style="stop-color:#e4f0ff" offset="1"/>
    </linearGradient>
    <linearGradient id="linearGradient486" y2="17.15" gradientUnits="userSpaceOnUse" x2="33.85" gradientTransform="matrix(.8 0 0 -.8 0 38.96)" y1="17.15">
      <stop id="stop488" style="stop-color:#5d92e1" offset="0"/>
      <stop id="stop490" style="stop-color:#456ca7" offset="1"/>
    </linearGradient>
    <linearGradient id="linearGradient506" y2="-20.005" gradientUnits="userSpaceOnUse" x2="41.083" gradientTransform="matrix(-.07888 -.79608 -.79608 .07888 .00029113 38.96)" y1="-20.005" x1="20.03">
      <stop id="stop508" style="stop-color:#5d92e1" offset="0"/>
      <stop id="stop510" style="stop-color:#456ca7" offset="1"/>
    </linearGradient>
    <linearGradient id="linearGradient524" y2="-31.473" gradientUnits="userSpaceOnUse" x2="45.093" gradientTransform="matrix(.000025118 -.8 -.8 .0008 -.00033216 38.96)" y1="-31.473" x1="13.243">
      <stop id="stop526" style="stop-color:#a2afbf" offset="0"/>
      <stop id="stop528" style="stop-color:#8da1b9" offset="1"/>
    </linearGradient>
    <linearGradient id="linearGradient542" y2="9.1289" gradientUnits="userSpaceOnUse" x2="98.147" gradientTransform="matrix(.79944 -.03016 -1.9802 -.72584 .00024204 38.96)" y1="9.1289" x1="37.804">
      <stop id="stop544" style="stop-color:#e3efff" offset="0"/>
      <stop id="stop546" style="stop-color:#bfcfe5" offset=".55290"/>
      <stop id="stop550" style="stop-color:#e4f0ff" offset="1"/>
    </linearGradient>
    <linearGradient id="linearGradient564" y2="10.11" gradientUnits="userSpaceOnUse" x2="97.497" gradientTransform="matrix(.79944 -.03016 -1.9831 -.72576 .00039811 38.96)" y1="10.11" x1="37.179">
      <stop id="stop566" style="stop-color:#e3efff" offset="0"/>
      <stop id="stop568" style="stop-color:#bfcfe5" offset=".55290"/>
      <stop id="stop572" style="stop-color:#e4f0ff" offset="1"/>
    </linearGradient>
    <linearGradient id="linearGradient586" y2="-14.045" gradientUnits="userSpaceOnUse" x2="44.933" gradientTransform="matrix(.0156 -.79984 -.79984 -.0156 .00010269 38.96)" y1="-14.045" x1="14.228">
      <stop id="stop588" style="stop-color:#d8ad1c" offset="0"/>
      <stop id="stop590" style="stop-color:#f4d64a" offset=".49020"/>
      <stop id="stop592" style="stop-color:#d3a81b" offset=".78040"/>
      <stop id="stop594" style="stop-color:#b79116" offset="1"/>
    </linearGradient>
    <linearGradient id="linearGradient608" y2="-4.9736" gradientUnits="userSpaceOnUse" x2="46.157" gradientTransform="matrix(.000025217 -.8 -.8 .0008 -.00030755 38.96)" y1="-4.9736" x1="14.432">
      <stop id="stop610" style="stop-color:#e3efff" offset="0"/>
      <stop id="stop612" style="stop-color:#bfcfe5" offset="1"/>
    </linearGradient>
    <linearGradient id="linearGradient626" y2="12.603" gradientUnits="userSpaceOnUse" x2="97.164" gradientTransform="matrix(.79944 -.03016 -1.9819 -.72576 .00076804 38.96)" y1="12.603" x1="36.871">
      <stop id="stop628" style="stop-color:#e3efff" offset="0"/>
      <stop id="stop630" style="stop-color:#bfcfe5" offset=".55290"/>
      <stop id="stop634" style="stop-color:#e4f0ff" offset="1"/>
    </linearGradient>
    <linearGradient id="linearGradient648" y2="-8.5234" gradientUnits="userSpaceOnUse" x2="46.152" gradientTransform="matrix(.000025217 -.8 -.8 .0008 -.00030755 38.96)" y1="-8.5234" x1="14.427">
      <stop id="stop650" style="stop-color:#e3efff" offset="0"/>
      <stop id="stop652" style="stop-color:#bfcfe5" offset="1"/>
    </linearGradient>
    <linearGradient id="linearGradient666" y2="-19.898" gradientUnits="userSpaceOnUse" x2="46.145" gradientTransform="matrix(.000025217 -.8 -.8 .0008 -.00030755 38.96)" y1="-19.898" x1="14.42">
      <stop id="stop668" style="stop-color:#e3efff" offset="0"/>
      <stop id="stop670" style="stop-color:#bfcfe5" offset="1"/>
    </linearGradient>
    <linearGradient id="linearGradient684" y2="-5.8232" gradientUnits="userSpaceOnUse" x2="46.157" gradientTransform="matrix(.000025217 -.8 -.8 .0008 -.00030755 38.96)" y1="-5.8232" x1="14.432">
      <stop id="stop686" style="stop-color:#e3efff" offset="0"/>
      <stop id="stop688" style="stop-color:#bfcfe5" offset="1"/>
    </linearGradient>
    <linearGradient id="linearGradient702" y2="-36.207" gradientUnits="userSpaceOnUse" x2="45.087" gradientTransform="matrix(.000025118 -.8 -.8 .0008 -.00033216 38.96)" y1="-36.207" x1="13.237">
      <stop id="stop704" style="stop-color:#a2afbf" offset="0"/>
      <stop id="stop706" style="stop-color:#8da1b9" offset="1"/>
    </linearGradient>
    <linearGradient id="linearGradient720" y2="-28.849" gradientUnits="userSpaceOnUse" x2="46.133" gradientTransform="matrix(.000025217 -.8 -.8 .0008 -.00030755 38.96)" y1="-28.849" x1="14.408">
      <stop id="stop722" style="stop-color:#e3efff" offset="0"/>
      <stop id="stop724" style="stop-color:#bfcfe5" offset="1"/>
    </linearGradient>
    <linearGradient id="linearGradient738" y2="-23.273" gradientUnits="userSpaceOnUse" x2="46.139" gradientTransform="matrix(.000025217 -.8 -.8 .0008 -.00030755 38.96)" y1="-23.273" x1="14.414">
      <stop id="stop740" style="stop-color:#e3efff" offset="0"/>
      <stop id="stop742" style="stop-color:#bfcfe5" offset="1"/>
    </linearGradient>
    <linearGradient id="linearGradient756" y2="-32.348" gradientUnits="userSpaceOnUse" x2="45.093" gradientTransform="matrix(.000025118 -.8 -.8 .0008 -.00033216 38.96)" y1="-32.348" x1="13.243">
      <stop id="stop758" style="stop-color:#a2afbf" offset="0"/>
      <stop id="stop760" style="stop-color:#8da1b9" offset="1"/>
    </linearGradient>
    <linearGradient id="linearGradient774" y2="-28.348" gradientUnits="userSpaceOnUse" x2="46.134" gradientTransform="matrix(.000025217 -.8 -.8 .0008 -.00030755 38.96)" y1="-28.348" x1="14.409">
      <stop id="stop776" style="stop-color:#e3efff" offset="0"/>
      <stop id="stop778" style="stop-color:#bfcfe5" offset="1"/>
    </linearGradient>
  </defs>
  <g id="g10" transform="matrix(1.25 0 0 -1.25 0 48.685)">
    <g id="g12">
      <g id="g14">
        <g id="g16">
          <g id="g22">
            <path id="path34" style="fill-rule:evenodd;fill:url(#linearGradient24)" d="m29.84 32.6c0.082 0.16 0.133 0.332 0.16 0.52v0.039c0 0.109-0.012 0.214-0.039 0.32l0.68-0.039-0.321-0.16 2.078-0.481 0.282-0.039-2.84-0.16z" inkscape:connector-curvature="0"/>
          </g>
        </g>
      </g>
      <g id="g36">
        <g id="g38">
          <g id="g44">
            <path id="path54" style="fill-rule:evenodd;fill:url(#linearGradient46)" d="m28.879 31.08-0.199 0.04c0.027 0.054 0.039 0.105 0.039 0.16 0.082 0.215 0.082 0.398 0 0.558 0.535 0.16 0.906 0.414 1.121 0.762l2.84 0.16-0.282 0.039 8.563-0.961-0.481-0.16 0.2 0.16-1.321-0.277-2.718 0.437 0.039-0.878-3.481-0.719-3.277 0.48-0.481 0.117 0.559 0.282-1.121-0.2zm6.32-1-1.84 0.321h3l-1.16-0.321zm-19.48-1.679c0.906 0.347 1.773 0.652 2.601 0.918 0.215-0.078 0.508-0.117 0.879-0.117 1.387-0.055 2.348-0.028 2.879 0.078 0.215 0.054 0.442 0.105 0.684 0.16l0.84 0.039 0.64-0.84 1.918 0.801c0.293-0.055 0.586-0.106 0.879-0.16l3.441-0.559v-0.082c-1.304-0.371-2.851-0.758-4.64-1.16l-2.438-0.438-2.761 0.438 0.039-0.16c-0.719 0.136-1.453 0.254-2.2 0.359-1.011 0.16-1.972 0.32-2.878 0.481l1.078 0.043-0.961 0.199zm5.281 5.359c0.027 0.106 0.055 0.215 0.078 0.32h0.484l-0.484-0.242c0.27 0.028 0.469 0.055 0.602 0.082v-0.121l-0.121-0.039h-0.559zm-7.68-2.558 0.321-0.481c-1.68-0.43-3.586-0.949-5.719-1.562v-0.039c-1.203 0.187-2.453 0.375-3.762 0.558-0.375 0.055-0.762 0.121-1.16 0.203l3.238 0.199-2.316 0.481 1.879 0.961-3.879-0.641h-0.043c3.387 0.879 5.894 1.52 7.519 1.918l1.282 0.281-0.16-0.082-2.918-0.679c1.332-0.239 2.586-0.465 3.757-0.68l-2-0.398 3.84 0.121c-0.027-0.055-0.027-0.11 0-0.16h0.121zm-13.281-0.801 0.121-0.039c-0.055 0-0.105 0.011-0.16 0.039h0.039z" inkscape:connector-curvature="0"/>
          </g>
        </g>
      </g>
      <g id="g56">
        <g id="g58">
          <g id="g64">
            <path id="path76" style="fill-rule:evenodd;fill:url(#linearGradient66)" d="m39.359 31.561 1.321 0.277-0.2-0.16-4.121-1.277h-3.16l3.481 0.719-0.039 0.878 2.718-0.437z" inkscape:connector-curvature="0"/>
          </g>
        </g>
      </g>
      <path id="path78" style="fill-rule:evenodd;fill:#303f60" d="m35.359 30.08c-0.371-0.214-1.05-0.468-2.039-0.761-0.906-0.239-1.668-0.414-2.281-0.52 1.281 0.348 2.641 0.774 4.082 1.281l-1.922 0.321h0.16l1.84-0.321h0.16zm-6.679 1.04 0.199-0.04 0.562-0.082 0.481-0.117-1.242 0.199v0.04zm1.8-2.481v0.082c0.157 0 0.317 0.02 0.481 0.059l-0.481-0.141zm0.481-25.598c-0.082-0.027-0.16-0.066-0.242-0.121v0.121c0 2.797 0.054 5.571 0.16 8.321 0.027 0.265 0.043 0.57 0.043 0.918 0.023 1.121 0.012 2.64-0.043 4.558-0.027 1.387-0.067 2.973-0.117 4.762l-0.043 0.68-0.039 0.879-0.2 5.16v0.043c0.243-0.188 0.36-0.762 0.36-1.723 0.027-0.531 0.015-1.305-0.039-2.32 0-1.465 0.105-8.078 0.32-19.84l-0.16-1.438zm-20.281 30.039l0.242 0.04-0.402-0.122 0.16 0.082z" inkscape:connector-curvature="0"/>
      <path id="path80" style="fill-rule:evenodd;fill:#9fc8fe" d="m40.48 31.678-5.121-1.758v0.16h-0.16l1.16 0.321 4.121 1.277zm-25.519-3.84v0.321c0.078 0 0.144 0.015 0.199 0.043 0.133-0.028 0.281-0.043 0.442-0.043 0.906-0.161 1.863-0.321 2.878-0.481 0.747-0.105 1.481-0.223 2.2-0.359 0.8-0.16 1.586-0.305 2.359-0.438 1.016 0.211 1.949 0.414 2.801 0.598 1.785 0.402 3.332 0.789 4.64 1.16v-0.32c-1.894-0.559-4.242-1.199-7.039-1.918v-6.321l-0.722 5.52c-0.028 0.16-0.051 0.305-0.078 0.441-0.028 0.133-0.067 0.25-0.121 0.36l-3.598 0.758c-1.442 0.242-2.762 0.468-3.961 0.679zm-7.039 1.282 0.039-0.321c-1.359 0.215-2.773 0.469-4.242 0.762-1.145 0.238-2.332 0.504-3.559 0.801 0.961-0.188 1.906-0.348 2.84-0.481 0.398-0.082 0.785-0.148 1.16-0.203 1.305-0.183 2.559-0.371 3.762-0.558zm-7.481-4.321h-0.043l-0.078 1.602 0.121-1.602z" inkscape:connector-curvature="0"/>
      <g id="g82">
        <g id="g84">
          <g id="g90">
            <path id="path102" style="fill-rule:evenodd;fill:url(#linearGradient92)" d="m32.441 3.76c-0.429-0.16-0.867-0.375-1.32-0.64-0.055-0.028-0.109-0.051-0.16-0.082l0.16 1.441c-0.215 11.762-0.32 18.375-0.32 19.84 0.054 1.015 0.066 1.789 0.039 2.32 0 0.961-0.117 1.535-0.36 1.723v0.277l0.481 0.141 0.039 0.019h0.043c0.613 0.106 1.371 0.281 2.281 0.52 0.985 0.293 1.664 0.547 2.039 0.761v-0.16l-0.164-0.961c-0.105-0.8-0.187-1.679-0.238-2.64v-1.481c-0.027-0.238-0.039-0.504-0.039-0.797v-2.242c0-0.558 0.012-1.172 0.039-1.84l0.16-10.757c0.024-1.227 0.051-2.536 0.078-3.922l-0.398-0.321-0.16-0.078-0.161-0.082-0.039-0.039c-0.312-0.207-0.597-0.375-0.863-0.5l-0.117-0.058c-0.031-0.012-0.066-0.028-0.102-0.043-0.132-0.079-0.265-0.133-0.398-0.161-0.082-0.05-0.16-0.105-0.238-0.16l-0.282-0.078z" inkscape:connector-curvature="0"/>
          </g>
        </g>
      </g>
      <g id="g104">
        <g id="g106">
          <g id="g112">
            <path id="path124" style="fill-rule:evenodd;fill:url(#linearGradient114)" d="m31.039 28.799h-0.039l-0.039-0.019c-0.164-0.039-0.324-0.059-0.481-0.059l-3.441 0.559c-0.293 0.054-0.586 0.105-0.879 0.16-0.961 0.16-1.828 0.293-2.601 0.398 0.32 0.16 0.586 0.297 0.8 0.403 0.133 0.05 0.946 0.105 2.442 0.16 0.957 0.027 1.586 0.254 1.879 0.679l1.242-0.199 3.277-0.48 1.922-0.321c-1.441-0.507-2.801-0.933-4.082-1.281zm-18.68 3.801c0.133-0.187 0.293-0.332 0.481-0.441 0.16-0.106 0.375-0.2 0.64-0.278-0.054-0.027-0.093-0.082-0.121-0.16-0.105-0.133-0.16-0.254-0.16-0.359l-1.32 0.199c-0.184 0.027-0.359 0.051-0.52 0.078-1.171 0.215-2.425 0.441-3.757 0.68l2.918 0.679 0.402 0.122 0.957 0.199c0.082-0.266 0.242-0.504 0.48-0.719zm2.442-0.281v0.16l0.121-0.16h-0.121zm0-1.278c-0.055 0.024-0.094 0.039-0.121 0.039h0.199c-0.027 0-0.055-0.015-0.078-0.039z" inkscape:connector-curvature="0"/>
          </g>
        </g>
      </g>
      <g id="g126">
        <g id="g128">
          <g id="g134">
            <path id="path142" style="fill-rule:evenodd;fill:url(#linearGradient136)" d="m40.48 31.678 0.481 0.16v-4.597l-1.16-0.481h-0.039l-4.801-1.922v1.481c0.051 0.961 0.133 1.84 0.238 2.64l0.16 0.961 5.121 1.758zm-10-3.359 0.2-5.16c-1.707-0.719-4.039-1.719-7-3-0.051 0-0.094-0.012-0.118-0.039-0.027 0-0.054-0.012-0.082-0.04h-0.039v6.321c2.797 0.719 5.145 1.359 7.039 1.918z" inkscape:connector-curvature="0"/>
          </g>
        </g>
      </g>
      <path id="path144" style="fill-rule:evenodd;fill:#2c3956" d="m39.801 26.76-0.039-0.801-4.16-1.64-0.68-0.278c0 0.293 0.012 0.559 0.039 0.797l4.801 1.922h0.039zm-16.121-7.558c-0.051-0.028-0.094-0.055-0.118-0.082l-0.921 1.16 0.8-0.2h0.079l0.039 0.04c0.027 0.027 0.066 0.039 0.121 0.039 2.961 1.281 5.293 2.281 7 3l0.039-0.879c-1.281-0.559-2.785-1.215-4.52-1.961-0.773-0.344-1.613-0.719-2.519-1.117z" inkscape:connector-curvature="0"/>
      <g id="g146">
        <g id="g148">
          <g id="g154">
            <path id="path162" style="fill-rule:evenodd;fill:url(#linearGradient156)" d="m34.922 21.799v2.242l0.68 0.278-0.122-0.16 0.481-3.039-1.039 0.679z" inkscape:connector-curvature="0"/>
          </g>
        </g>
      </g>
      <g id="g164">
        <g id="g166">
          <g id="g172">
            <path id="path180" style="fill-rule:evenodd;fill:url(#linearGradient174)" d="m35.121 9.202-0.16 10.757c-0.027 0.668-0.039 1.282-0.039 1.84l1.039-0.679-0.481 3.039 0.118 0.16 4.16 1.64c-0.024-2.504-0.024-4.171 0-5 0-0.187 0.015-0.437 0.043-0.757l-0.68-0.204-0.683 2.801-0.758-3.199-1.961-1 1.48-1.52-0.597-3.32 1.757 2.442 1.52-0.961v-3.879l-0.481-0.282 0.481-0.48v-2.918l-2.801-1.602c-0.531-0.292-1.023-0.558-1.48-0.8l-0.317 1.922 1.559 2.679-1.719-0.679zm4.719 9.359c0-0.723 0.015-1.602 0.039-2.641l-0.359 2.16 0.32 0.481zm-5.199-13.68 0.16-0.043c-0.477-0.238-0.883-0.429-1.223-0.578 0.266 0.125 0.551 0.293 0.863 0.5l0.039 0.039 0.161 0.082zm-10.403-4.883 0.442 0.641 0.48-0.238c-0.293-0.133-0.601-0.266-0.922-0.403zm6.481 3.043c-1.117-0.535-2.559-1.214-4.321-2.043l-0.359 1.801 1.723 2.961-2.242-0.922-0.879 2.961-0.602-2.597c-0.187 4.746-0.281 7.867-0.281 9.359l-0.039 3.039 1 1.238 1.961-1.16-0.481 2.641c1.735 0.746 3.242 1.402 4.52 1.961l0.043-0.68c0.05-1.785 0.09-3.375 0.117-4.762h-0.039l-0.762 3-0.84-3.476-2.238-1.082 1.719-1.602-0.641-3.558 1.961 2.679 0.883-0.519c0-0.348-0.016-0.653-0.043-0.918-0.106-2.75-0.16-5.524-0.16-8.321z" inkscape:connector-curvature="0"/>
          </g>
        </g>
      </g>
      <g id="g182">
        <g id="g184">
          <g id="g190">
            <path id="path198" style="fill-rule:evenodd;fill:url(#linearGradient192)" d="m39.879 15.92v-0.679l-1.52 0.961-1.757-2.442 0.597 3.32-1.48 1.52 1.961 1 0.761 3.199 0.68-2.801 0.68 0.204 0.039-1.641-0.32-0.481 0.359-2.16z" inkscape:connector-curvature="0"/>
          </g>
        </g>
      </g>
      <g id="g200">
        <g id="g202">
          <g id="g208">
            <path id="path216" style="fill-rule:evenodd;fill:url(#linearGradient210)" d="m39.879 11.362v-0.762l-0.481 0.48 0.481 0.282z" inkscape:connector-curvature="0"/>
          </g>
        </g>
      </g>
      <g id="g218">
        <g id="g220">
          <g id="g226">
            <path id="path234" style="fill-rule:evenodd;fill:url(#linearGradient228)" d="m34.641 4.881 0.16 0.078 0.398 0.321c-0.027 1.386-0.051 2.691-0.078 3.918l1.719 0.683-1.559-2.679 0.321-1.922v-0.039l-0.801-0.442v0.039l-0.16 0.043zm-2.2-1.121 0.282 0.078-0.282-0.117v0.039zm0.918 0.399-0.039-0.079-0.601-0.242c0.082 0.055 0.16 0.11 0.242 0.16 0.133 0.028 0.266 0.082 0.398 0.161z" inkscape:connector-curvature="0"/>
          </g>
        </g>
      </g>
      <g id="g236">
        <g id="g238">
          <g id="g244">
            <path id="path256" style="fill-rule:evenodd;fill:url(#linearGradient246)" d="m26.32 34.639c-0.425 0.375-1.226 0.375-2.398 0-0.11-0.027-0.215-0.051-0.32-0.078-0.082-0.027-0.149-0.066-0.204-0.121-0.183-0.055-0.41-0.172-0.679-0.36-0.211-0.105-0.387-0.199-0.52-0.281-0.105-0.027-0.172-0.051-0.199-0.078-0.055 0-0.105-0.016-0.16-0.043-0.051-0.023-0.215-0.051-0.481-0.078-0.082 0-0.16-0.012-0.238-0.039l0.438 0.199 0.121 0.039 0.398 0.16c0.137 0.082 0.363 0.227 0.684 0.442 0.027 0.027 0.039 0.054 0.039 0.078 0.347 0.242 0.652 0.414 0.922 0.519 0.797 0.27 1.73 0.364 2.797 0.282 1.894-0.106 2.972-0.481 3.242-1.121 0.078-0.239 0.144-0.465 0.199-0.68 0.027-0.106 0.039-0.211 0.039-0.32v-0.039c-0.027-0.188-0.078-0.36-0.16-0.52-0.215-0.348-0.586-0.602-1.121-0.762-0.293-0.078-0.625-0.133-1-0.16-0.719-0.078-1.399-0.039-2.039 0.121-0.668 0.133-0.989 0.309-0.961 0.52h0.043c0.078 0 0.172-0.012 0.277-0.039 0.375 0 0.652 0.015 0.84 0.039 0.43 0 0.723 0.16 0.883 0.48 0.078 0.215 0.093 0.52 0.039 0.922-0.078 0.293-0.16 0.52-0.239 0.68-0.054 0.054-0.093 0.105-0.121 0.16-0.027 0.027-0.066 0.051-0.121 0.078z" inkscape:connector-curvature="0"/>
          </g>
        </g>
      </g>
      <path id="path258" style="fill-rule:evenodd;fill:#edde7e" d="m25.039 32.28c-0.105 0.027-0.199 0.039-0.277 0.039-0.11 0.054-0.16 0.109-0.16 0.16 0.16-0.051 0.304-0.117 0.437-0.199zm1.52 2.121c-0.184-0.055-0.411-0.133-0.68-0.242-0.317-0.051-0.664-0.039-1.039 0.043-0.215 0.027-0.559 0.093-1.039 0.199-0.133 0.027-0.266 0.039-0.403 0.039 0.055 0.055 0.122 0.094 0.204 0.121 0.105 0.027 0.21 0.051 0.32 0.078 0.371-0.051 0.637-0.105 0.797-0.16 0.426-0.078 0.801-0.094 1.121-0.039l0.48 0.199c0.051-0.027 0.094-0.051 0.118-0.078 0.027-0.055 0.07-0.106 0.121-0.16zm-3.797 0h-0.082c-0.106-0.028-0.254-0.121-0.442-0.281-0.16-0.133-0.332-0.2-0.519-0.2h-0.039c-0.133-0.027-0.332-0.054-0.602-0.082l0.484 0.242v0.161c0.211-0.028 0.399 0.027 0.559 0.16 0.215 0.187 0.371 0.293 0.481 0.32h0.078c0.347 0.266 0.656 0.453 0.922 0.559 0.824 0.293 1.785 0.398 2.878 0.32 1.895-0.133 2.973-0.535 3.243-1.199 0.132-0.321 0.211-0.629 0.238-0.922-0.055 0.215-0.121 0.441-0.199 0.68-0.27 0.64-1.348 1.015-3.242 1.121-1.067 0.082-2-0.012-2.801-0.282-0.266-0.105-0.571-0.277-0.918-0.519 0-0.024-0.016-0.051-0.039-0.078zm-1.762-0.641h0.559l-0.438-0.199c0.078 0.027 0.16 0.039 0.238 0.039 0.266 0.027 0.426 0.055 0.481 0.078 0.215 0 0.441-0.066 0.68-0.199 0.164-0.09 0.312-0.164 0.441-0.219-0.184 0.07-0.399 0.133-0.641 0.18-0.187 0.027-0.668 0.039-1.441 0.039 0.027 0.082 0.066 0.176 0.121 0.281zm0.441 3.918c-0.242 0.481-0.695 0.777-1.363 0.883-0.504 0.078-1.039-0.027-1.598-0.32-0.613-0.266-0.972-0.614-1.082-1.039-0.023-0.11-0.039-0.215-0.039-0.321l-0.039 0.039c-0.398-0.32-0.547-0.8-0.441-1.441 0.055-0.211 0.109-0.414 0.16-0.598-0.211 0.051-0.465 0.106-0.758 0.16-2 0.481-3.32 0.321-3.961-0.48-0.293-0.402-0.386-0.828-0.281-1.281 0.055-0.266 0.16-0.492 0.32-0.68-0.238 0.215-0.398 0.453-0.48 0.719-0.024 0.082-0.051 0.148-0.078 0.203-0.106 0.476-0.016 0.918 0.277 1.316 0.453 0.563 1.149 0.828 2.082 0.801 0.668 0 1.586-0.144 2.762-0.437-0.16 0.398-0.227 0.773-0.203 1.117 0 0.426 0.148 0.746 0.441 0.961l0.039-0.039 0.039 0.32c0.11 0.453 0.469 0.812 1.082 1.078 0.586 0.266 1.133 0.359 1.641 0.281 0.801-0.132 1.293-0.547 1.48-1.242zm-6-3.918c0.051 0.106 0.118 0.188 0.2 0.238 0.371-0.05 0.679-0.078 0.918-0.078 0.32 0 0.668 0.051 1.043 0.16 0-0.027 0.011-0.039 0.039-0.039 0.078-0.082 0.16-0.148 0.238-0.203-0.504-0.105-0.891-0.16-1.16-0.16-0.371 0-0.797 0.027-1.278 0.082zm1.278-2.519c0 0.265 0.109 0.531 0.32 0.8 0.106 0.024 0.227 0.067 0.359 0.118-0.503-0.559-0.679-1.106-0.519-1.637 0.027-0.082 0.082-0.176 0.16-0.281-0.133 0.132-0.238 0.293-0.32 0.48-0.051 0.16-0.051 0.332 0 0.52zm6.562 1.839c0.133-0.054 0.254-0.105 0.36-0.16 0.05-0.082 0.093-0.148 0.121-0.199 0.023-0.055 0.05-0.109 0.078-0.16 0.055-0.133 0.094-0.254 0.121-0.359-0.027 0.05-0.039 0.093-0.039 0.117-0.137 0.32-0.348 0.574-0.641 0.761zm-8.359-0.761-0.121 0.16 0.277-0.32h-0.039l-0.117 0.16zm0.039-0.321c-0.027 0.028-0.055 0.067-0.082 0.122 0.055-0.055 0.121-0.094 0.199-0.122h-0.117z" inkscape:connector-curvature="0"/>
      <g id="g260">
        <g id="g262">
          <g id="g268">
            <path id="path278" style="fill-rule:evenodd;fill:url(#linearGradient270)" d="m26.559 34.401c0.082-0.16 0.16-0.387 0.242-0.68 0.051-0.402 0.039-0.707-0.039-0.922-0.16-0.32-0.453-0.48-0.883-0.48-0.188-0.028-0.465-0.039-0.84-0.039-0.133 0.082-0.281 0.148-0.441 0.199-0.106 0.082-0.211 0.133-0.321 0.16-0.023 0.027-0.05 0.039-0.078 0.039-0.16 0.082-0.347 0.16-0.558 0.242-0.11 0.051-0.227 0.106-0.364 0.16-0.05 0.028-0.144 0.079-0.277 0.161-0.016 0.004-0.027 0.011-0.039 0.019-0.133 0.055-0.281 0.129-0.441 0.219-0.239 0.133-0.465 0.199-0.68 0.199 0.055 0.027 0.105 0.043 0.16 0.043 0.027 0.024 0.094 0.051 0.199 0.078 0.133 0.082 0.309 0.176 0.52 0.281 0.269 0.188 0.492 0.305 0.679 0.36 0.137 0 0.27-0.012 0.403-0.039 0.48-0.106 0.824-0.172 1.039-0.199 0.375-0.082 0.719-0.094 1.039-0.043 0.269 0.109 0.496 0.187 0.68 0.242zm-4.879-0.602v0.121h0.043c0.183 0 0.355 0.067 0.515 0.2 0.188 0.16 0.336 0.253 0.442 0.281h0.082c-0.321-0.215-0.547-0.36-0.684-0.442l-0.398-0.16z" inkscape:connector-curvature="0"/>
          </g>
        </g>
      </g>
      <path id="path280" style="fill-rule:evenodd;fill:#5e4b07" d="m23.961 32.202c-0.027 0.105-0.066 0.226-0.121 0.359-0.028 0.051-0.051 0.105-0.078 0.16h0.078c0.133 0 0.254-0.016 0.359-0.043 0.028 0 0.055-0.012 0.082-0.039 0.106-0.027 0.211-0.078 0.321-0.16 0-0.051 0.05-0.106 0.16-0.16h-0.043c-0.028-0.211 0.293-0.387 0.961-0.52 0.64-0.16 1.32-0.199 2.039-0.121 0.375 0.027 0.707 0.082 1 0.16 0.082-0.16 0.082-0.343 0-0.558 0-0.051-0.012-0.106-0.039-0.16v-0.04c-0.293-0.425-0.918-0.652-1.879-0.679-1.496-0.055-2.309-0.106-2.442-0.16-0.214-0.106-0.48-0.243-0.8-0.403h-0.039c-0.082-0.05-0.161-0.093-0.243-0.117-0.183-0.082-0.355-0.176-0.515-0.281-0.242-0.055-0.469-0.106-0.684-0.16-0.531-0.106-1.492-0.133-2.879-0.078-0.375 0-0.668 0.039-0.879 0.117-0.242 0.082-0.402 0.215-0.48 0.402 0.851-0.266 2.293-0.187 4.32 0.238 0.692 0.161 1.211 0.426 1.559 0.801 0.347 0.426 0.429 0.906 0.242 1.442zm-7.242-0.961c-0.321-0.028-0.68-0.055-1.078-0.082-0.266-0.024-0.52-0.051-0.762-0.079h-0.199c-0.559-0.027-1.012 0.012-1.36 0.122h-0.121c-0.027 0.05-0.027 0.105 0 0.16 0 0.105 0.055 0.226 0.16 0.359 0.028 0.078 0.067 0.133 0.121 0.16 0.188-0.027 0.387-0.054 0.598-0.082 0.59-0.027 0.977-0.039 1.16-0.039-0.105 0.055-0.199 0.133-0.277 0.238h0.117c-0.078 0.028-0.144 0.067-0.199 0.122-0.051 0.054-0.078 0.121-0.078 0.199h0.121l0.117-0.16h0.039l0.16-0.2c0.535-0.078 1.137-0.054 1.801 0.082-0.211-0.269-0.32-0.535-0.32-0.8z" inkscape:connector-curvature="0"/>
      <g id="g282">
        <g id="g284">
          <g id="g290">
            <path id="path302" style="fill-rule:evenodd;fill:url(#linearGradient292)" d="m26.16 29.44-1.922-0.801-0.636 0.84-0.84-0.039c0.16 0.105 0.332 0.199 0.515 0.281 0.082 0.024 0.161 0.067 0.243 0.117h0.039c0.773-0.105 1.64-0.238 2.601-0.398zm2.719 1.64 1.121 0.2-0.559-0.282-0.562 0.082z" inkscape:connector-curvature="0"/>
          </g>
        </g>
      </g>
      <g id="g304">
        <g id="g306">
          <g id="g312">
            <path id="path324" style="fill-rule:evenodd;fill:url(#linearGradient314)" d="m21.078 34.08c-0.023-0.105-0.051-0.214-0.078-0.32-0.055-0.105-0.094-0.199-0.121-0.281h-0.317l-0.203 0.121 0.161 0.16c-0.106 0-0.215-0.015-0.321-0.039l-0.398 0.238c-0.242 0.133-0.469 0.282-0.68 0.442-0.348 0.293-0.668 0.613-0.961 0.961-0.508 0.558-0.773 1.066-0.801 1.519 0 0.106 0.016 0.211 0.039 0.321 0.11 0.425 0.469 0.773 1.082 1.039 0.559 0.293 1.094 0.398 1.598 0.32 0.668-0.106 1.121-0.402 1.363-0.883 0.161-0.344 0.2-0.797 0.118-1.359-0.079-0.559-0.239-1.305-0.481-2.239z" inkscape:connector-curvature="0"/>
          </g>
        </g>
      </g>
      <g id="g326">
        <g id="g328">
          <g id="g334">
            <path id="path344" style="fill-rule:evenodd;fill:url(#linearGradient336)" d="m17.359 36.881c0.028-0.453 0.293-0.961 0.801-1.519 0.293-0.348 0.613-0.668 0.961-0.961-0.535 0.133-1.226 0.293-2.082 0.48-0.051 0.184-0.105 0.387-0.16 0.598-0.106 0.641 0.043 1.121 0.441 1.441l0.039-0.039zm0.243-2.801c-0.137 0.106-0.243 0.239-0.321 0.399l0.078-0.039c0.348-0.027 0.746-0.149 1.2-0.36 0.48-0.214 0.894-0.375 1.242-0.48-0.188-0.055-0.375-0.121-0.563-0.199-0.558 0.078-1.011 0.226-1.359 0.437-0.078 0.055-0.16 0.121-0.238 0.203-0.028 0-0.039 0.012-0.039 0.039zm2.636-0.558c0.028 0 0.071-0.016 0.121-0.043h-0.121v0.043z" inkscape:connector-curvature="0"/>
          </g>
        </g>
      </g>
      <g id="g346">
        <g id="g348">
          <g id="g354">
            <path id="path366" style="fill-rule:evenodd;fill:url(#linearGradient356)" d="m17.602 34.08c-0.375-0.105-0.723-0.16-1.043-0.16-0.239 0-0.547 0.028-0.918 0.078 0.214 0.243 0.464 0.387 0.757 0.442 0.243 0.082 0.536 0.094 0.883 0.039 0.078-0.16 0.184-0.293 0.321-0.399z" inkscape:connector-curvature="0"/>
          </g>
        </g>
      </g>
      <g id="g368">
        <g id="g370">
          <g id="g376">
            <path id="path388" style="fill-rule:evenodd;fill:url(#linearGradient378)" d="m13.48 31.881c-0.265 0.078-0.48 0.172-0.64 0.278-0.188 0.109-0.348 0.254-0.481 0.441-0.16 0.188-0.265 0.414-0.32 0.68-0.105 0.453-0.012 0.879 0.281 1.281 0.641 0.801 1.961 0.961 3.961 0.48 0.293-0.054 0.547-0.109 0.758-0.16 0.856-0.187 1.547-0.347 2.082-0.48 0.211-0.16 0.438-0.309 0.68-0.442l0.398-0.238c-0.133-0.027-0.265-0.066-0.398-0.121-0.348 0.105-0.762 0.266-1.242 0.48-0.454 0.215-0.852 0.333-1.2 0.36l-0.078 0.039c-0.347 0.055-0.64 0.043-0.883-0.039-0.293-0.055-0.543-0.199-0.757-0.442-0.082-0.05-0.149-0.132-0.2-0.238-0.136-0.133-0.253-0.305-0.363-0.519-0.156-0.293-0.25-0.547-0.277-0.762v-0.16c0-0.078 0.027-0.145 0.078-0.199 0.027-0.055 0.055-0.094 0.082-0.122 0.078-0.105 0.172-0.183 0.277-0.238-0.183 0-0.57 0.012-1.16 0.039-0.211 0.028-0.41 0.055-0.598 0.082zm6.879 1.598c-0.05 0.027-0.093 0.043-0.121 0.043l0.121 0.078 0.2-0.121h-0.2z" inkscape:connector-curvature="0"/>
          </g>
        </g>
      </g>
      <g id="g390">
        <g id="g392">
          <g id="g398">
            <path id="path410" style="fill-rule:evenodd;fill:url(#linearGradient400)" d="m20.359 33.479h0.52c0.773 0 1.254-0.012 1.441-0.039 0.242-0.047 0.453-0.11 0.641-0.18 0.012-0.008 0.023-0.015 0.039-0.019 0.133-0.082 0.227-0.133 0.281-0.161 0.293-0.187 0.504-0.441 0.641-0.761 0-0.028 0.012-0.067 0.039-0.117 0.184-0.536 0.105-1.016-0.242-1.442-0.348-0.375-0.867-0.64-1.559-0.801-2.027-0.425-3.465-0.504-4.32-0.238-0.371 0.133-0.641 0.305-0.801 0.52-0.078 0.105-0.133 0.199-0.16 0.281-0.16 0.531 0.016 1.078 0.519 1.637 0.161 0.16 0.364 0.32 0.602 0.48 0.426 0.32 0.84 0.574 1.238 0.762 0.188 0.078 0.375 0.144 0.563 0.199 0.133 0.055 0.265 0.094 0.398 0.121 0.11 0.024 0.215 0.039 0.321 0.039l-0.161-0.16-0.121-0.078v-0.043h0.121z" inkscape:connector-curvature="0"/>
          </g>
        </g>
      </g>
      <g id="g412">
        <g id="g414">
          <g id="g420">
            <path id="path430" style="fill-rule:evenodd;fill:url(#linearGradient422)" d="m14.801 32.479c0.027 0.215 0.121 0.469 0.277 0.762 0.11 0.214 0.227 0.386 0.363 0.519 0.481-0.055 0.907-0.082 1.278-0.082 0.269 0 0.656 0.055 1.16 0.16 0.348-0.211 0.801-0.359 1.359-0.437-0.398-0.188-0.812-0.442-1.238-0.762-0.238-0.16-0.441-0.32-0.602-0.48-0.132-0.051-0.253-0.094-0.359-0.118-0.664-0.136-1.266-0.16-1.801-0.082l-0.16 0.2-0.277 0.32z" inkscape:connector-curvature="0"/>
          </g>
        </g>
      </g>
      <g id="g432">
        <g id="g434">
          <g id="g440">
            <path id="path452" style="fill-rule:evenodd;fill:url(#linearGradient442)" d="m18.32 29.319c-0.828-0.266-1.695-0.574-2.601-0.918-0.184-0.055-0.371-0.121-0.559-0.199-0.055-0.028-0.121-0.043-0.199-0.043l-1.082 0.16c-0.399 0.054-0.945 0.121-1.641 0.203l-4.316 0.637c2.133 0.613 4.039 1.136 5.719 1.562 0.371 0.133 0.757 0.238 1.16 0.32 0.023 0.024 0.051 0.039 0.078 0.039 0.242 0.028 0.496 0.055 0.762 0.079 0.398 0.027 0.757 0.054 1.078 0.082-0.051-0.188-0.051-0.36 0-0.52 0.082-0.187 0.187-0.348 0.32-0.48 0.16-0.215 0.43-0.387 0.801-0.52 0.082-0.187 0.238-0.32 0.48-0.402zm5.442 3.402c-0.028 0.051-0.071 0.117-0.121 0.199 0.214-0.082 0.398-0.16 0.558-0.242-0.105 0.027-0.226 0.043-0.359 0.043h-0.078z" inkscape:connector-curvature="0"/>
          </g>
        </g>
      </g>
      <g id="g454">
        <g id="g456">
          <g id="g462">
            <path id="path474" style="fill-rule:evenodd;fill:url(#linearGradient464)" d="m25.84 27.479c-0.852-0.184-1.785-0.387-2.801-0.598-0.773 0.133-1.559 0.278-2.359 0.438l-0.039 0.16 2.757-0.438 2.442 0.438z" inkscape:connector-curvature="0"/>
          </g>
        </g>
      </g>
      <g id="g476">
        <g id="g478">
          <g id="g484">
            <path id="path492" style="fill-rule:evenodd;fill:url(#linearGradient486)" d="m14.879 21.959 0.082 5.879c1.199-0.211 2.519-0.437 3.961-0.679l3.598-0.758c0.054-0.106 0.093-0.227 0.121-0.36 0.023-0.136 0.05-0.281 0.078-0.441l0.719-5.52-0.797 0.2-3.52 0.8c-1.469 0.321-2.734 0.586-3.801 0.801-0.132 0.024-0.281 0.051-0.441 0.078zm8.68-1.839-0.039-0.04h-0.04c0.028 0.028 0.055 0.04 0.079 0.04zm-23.399 10.242c1.227-0.297 2.414-0.563 3.559-0.801 1.469-0.293 2.883-0.547 4.242-0.762l0.078-2.238c0.027-1.176 0.094-2.387 0.199-3.641l-6 0.758-1.718 0.242-0.079 0.879-0.121 1.602-0.32 4c0.055-0.028 0.105-0.039 0.16-0.039z" inkscape:connector-curvature="0"/>
          </g>
        </g>
      </g>
      <path id="path494" style="fill-rule:evenodd;fill:#445989" d="m15.398 20.959c-0.183 0.028-0.359 0.067-0.519 0.121v0.879c0.16-0.027 0.309-0.054 0.441-0.078 1.067-0.215 2.332-0.48 3.801-0.801l3.52-0.8 0.918-1.16-0.637 0.16-2.121 0.601c-0.746 0.211-2.547 0.574-5.403 1.078zm-7.16 1.961v-0.679c-0.957 0.187-1.972 0.359-3.039 0.519-0.961 0.188-1.933 0.36-2.918 0.52h-0.043v0.398l6-0.758z" inkscape:connector-curvature="0"/>
      <g id="g496">
        <g id="g498">
          <g id="g504">
            <path id="path512" style="fill-rule:evenodd;fill:url(#linearGradient506)" d="m22.922 19.28-0.484-2.399 1.281 0.879v-0.16l0.043-3.039c0-1.492 0.09-4.613 0.277-9.359l-0.039-0.043 0.039-0.2-0.359-1.16-2.52 0.321 1.918-2.641-0.238-1.16 0.558-0.141-3.636 0.781c-1.817 0.403-3.254 0.696-4.321 0.879l-0.203 1.121 1.922 2-2.48 0.719c-0.028 0.695-0.039 1.32-0.039 1.883l0.199 11.758 1.082-1.199-0.524 2.839c2.856-0.504 4.657-0.867 5.403-1.078l2.121-0.601zm-20.442-11.399c-0.105 2.852-0.121 5.09-0.039 6.719 0.051 1.227 0.028 3.598-0.082 7.121l1.082 0.797 2.239-2.398-0.481 2.64c1.067-0.16 2.082-0.336 3.039-0.519 0.028-0.641 0.082-1.282 0.16-1.922l-0.918-3.078-2.558 0.32 1.957-2.641-0.641-3.398 2.16 1.558 0.321-0.359c0.082-2.801 0.136-5.976 0.16-9.519 0.055-0.055 0.133-0.11 0.242-0.161-1.387 0.372-3.027 0.813-4.922 1.321l0.961-0.203-0.16 0.8 1.922 1.961-2.524 0.758-0.918 3.524-0.921-3.321h-0.079zm15.239 7.399-2.559 0.32 1.961-2.641-0.641-3.359l2.161 1.48 2.238-2.402-0.719 3.641 1.918 2-2.519 0.722-0.918 3.52-0.922-3.281zm6.48-14.68c0.028-0.187 0.039-0.387 0.039-0.602l-0.117 0.024 0.078 0.578z" inkscape:connector-curvature="0"/>
          </g>
        </g>
      </g>
      <g id="g514">
        <g id="g516">
          <g id="g522">
            <path id="path530" style="fill-rule:evenodd;fill:url(#linearGradient524)" d="m26.199 20.319 0.481-2.641-1.961 1.16-1-1.238v0.16l-0.039 1.442c0.906 0.398 1.746 0.773 2.519 1.117z" inkscape:connector-curvature="0"/>
          </g>
        </g>
      </g>
      <g id="g532">
        <g id="g534">
          <g id="g540">
            <path id="path552" style="fill-rule:evenodd;fill:url(#linearGradient542)" d="m14.801 31.041c-0.403-0.082-0.789-0.187-1.16-0.32l-0.321 0.481c0.348-0.11 0.801-0.149 1.36-0.122 0.027 0 0.066-0.015 0.121-0.039zm-3.442 0.598c0.161-0.027 0.336-0.051 0.52-0.078l1.32-0.199-3.84-0.121 2 0.398z" inkscape:connector-curvature="0"/>
          </g>
        </g>
      </g>
      <g id="g554">
        <g id="g556">
          <g id="g562">
            <path id="path574" style="fill-rule:evenodd;fill:url(#linearGradient564)" d="m3 29.881c-0.934 0.133-1.879 0.293-2.84 0.481l-0.121 0.039 0.199 0.039 1.481 0.441h0.203l3.879 0.641-1.879-0.961 2.316-0.481-3.238-0.199z" inkscape:connector-curvature="0"/>
          </g>
        </g>
      </g>
      <g id="g576">
        <g id="g578">
          <g id="g584">
            <path id="path596" style="fill-rule:evenodd;fill:url(#linearGradient586)" d="m14.68 5.678c0.054-1.117 0.121-2.371 0.199-3.758-0.426 0.051-0.824 0.106-1.199 0.16-0.399 0.051-0.934 0.145-1.602 0.282-0.773 0.16-1.758 0.383-2.957 0.679-0.109 0.051-0.187 0.106-0.242 0.161-0.024 3.546-0.078 6.718-0.16 9.519-0.078 2.586-0.184 4.852-0.321 6.801v0.797c-0.078 0.64-0.132 1.281-0.16 1.922v0.679c-0.105 1.254-0.172 2.465-0.199 3.641l-0.078 2.238-0.039 0.321v0.039l4.316-0.637c0.696-0.082 1.242-0.149 1.641-0.203l1.082-0.16v-0.321l-0.082-5.879v-0.879l-0.039-1.761-0.199-11.758c0-0.563 0.011-1.188 0.039-1.883z" inkscape:connector-curvature="0"/>
          </g>
        </g>
      </g>
      <g id="g598">
        <g id="g600">
          <g id="g606">
            <path id="path614" style="fill-rule:evenodd;fill:url(#linearGradient608)" d="m2.281 23.28c0.985-0.16 1.957-0.332 2.918-0.52l0.481-2.64-2.239 2.402-1.082-0.801-0.039-0.043-0.039 1.602z" inkscape:connector-curvature="0"/>
          </g>
        </g>
      </g>
      <g id="g616">
        <g id="g618">
          <g id="g624">
            <path id="path636" style="fill-rule:evenodd;fill:url(#linearGradient626)" d="m15.719 28.401 0.961-0.199-1.078-0.043c-0.161 0-0.309 0.015-0.442 0.043 0.188 0.078 0.375 0.144 0.559 0.199z" inkscape:connector-curvature="0"/>
          </g>
        </g>
      </g>
      <g id="g638">
        <g id="g640">
          <g id="g646">
            <path id="path654" style="fill-rule:evenodd;fill:url(#linearGradient648)" d="m8.719 12.721-0.321 0.359-2.16-1.558 0.641 3.398-1.957 2.641 2.558-0.32 0.918 3.078v-0.797c0.137-1.949 0.243-4.215 0.321-6.801z" inkscape:connector-curvature="0"/>
          </g>
        </g>
      </g>
      <g id="g656">
        <g id="g658">
          <g id="g664">
            <path id="path672" style="fill-rule:evenodd;fill:url(#linearGradient666)" d="m15.398 20.959 0.524-2.839-1.082 1.199 0.039 1.761c0.16-0.054 0.336-0.093 0.519-0.121zm-0.519-19.039c-0.078 1.387-0.145 2.641-0.199 3.758l2.48-0.719-1.922-2 0.203-1.121h-0.043c-0.183 0.055-0.359 0.082-0.519 0.082z" inkscape:connector-curvature="0"/>
          </g>
        </g>
      </g>
      <g id="g674">
        <g id="g676">
          <g id="g682">
            <path id="path690" style="fill-rule:evenodd;fill:url(#linearGradient684)" d="m2.48 7.881h0.079l0.921 3.321 0.918-3.524 2.524-0.758-1.922-1.961 0.16-0.8-0.961 0.203-1.719 0.476-0.082 3.043h0.082z" inkscape:connector-curvature="0"/>
          </g>
        </g>
      </g>
      <g id="g692">
        <g id="g694">
          <g id="g700">
            <path id="path708" style="fill-rule:evenodd;fill:url(#linearGradient702)" d="m30.922 12.28-0.883 0.519-1.961-2.679 0.641 3.558-1.719 1.602 2.238 1.082 0.84 3.476 0.762-3h0.039c0.055-1.918 0.066-3.437 0.043-4.558z" inkscape:connector-curvature="0"/>
          </g>
        </g>
      </g>
      <g id="g710">
        <g id="g712">
          <g id="g718">
            <path id="path726" style="fill-rule:evenodd;fill:url(#linearGradient720)" d="m23.559 19.12c0.027 0.027 0.066 0.054 0.121 0.082l0.039-1.442-1.281-0.879 0.484 2.399 0.637-0.16z" inkscape:connector-curvature="0"/>
          </g>
        </g>
      </g>
      <g id="g728">
        <g id="g730">
          <g id="g736">
            <path id="path744" style="fill-rule:evenodd;fill:url(#linearGradient738)" d="m22.078 14.319-1.918-2 0.719-3.641-2.238 2.402-2.161-1.48 0.641 3.359-1.961 2.641 2.559-0.32 0.922 3.281 0.918-3.52 2.519-0.722z" inkscape:connector-curvature="0"/>
          </g>
        </g>
      </g>
      <g id="g746">
        <g id="g748">
          <g id="g754">
            <path id="path762" style="fill-rule:evenodd;fill:url(#linearGradient756)" d="m25.16 0.401-0.48 0.238-0.442-0.641c0 0.215-0.011 0.415-0.039 0.602v0.238l-0.078 1.364c-0.027 0.984-0.055 1.906-0.082 2.757l-0.039 0.2 0.039 0.043 0.602 2.597 0.879-2.961 2.242 0.922-1.723-2.961 0.359-1.801v-0.039l-1.199-0.558h-0.039z" inkscape:connector-curvature="0"/>
          </g>
        </g>
      </g>
      <g id="g764">
        <g id="g766">
          <g id="g772">
            <path id="path780" style="fill-rule:evenodd;fill:url(#linearGradient774)" d="m24.039 4.959c0.027-0.851 0.055-1.773 0.082-2.757l0.078-1.364v-0.238l-0.078-0.578v-0.024l-0.719 0.184-0.562 0.141 0.242 1.156-1.922 2.641 2.52-0.321 0.359 1.16z" inkscape:connector-curvature="0"/>
          </g>
        </g>
      </g>
    </g>
  </g>
<metadata><rdf:RDF><cc:Work><dc:format>image/svg+xml</dc:format><dc:type rdf:resource="http://purl.org/dc/dcmitype/StillImage"/><cc:license rdf:resource="http://creativecommons.org/licenses/publicdomain/"/><dc:publisher><cc:Agent rdf:about="http://openclipart.org/"><dc:title>Openclipart</dc:title></cc:Agent></dc:publisher></cc:Work><cc:License rdf:about="http://creativecommons.org/licenses/publicdomain/"><cc:permits rdf:resource="http://creativecommons.org/ns#Reproduction"/><cc:permits rdf:resource="http://creativecommons.org/ns#Distribution"/><cc:permits rdf:resource="http://creativecommons.org/ns#DerivativeWorks"/></cc:License></rdf:RDF></metadata></svg>