<?xml version="1.0" encoding="UTF-8" standalone="no"?>
<svg
   width="74"
   height="70.969521"
   viewBox="0 0 74 70.969521"
   fill="none"
   version="1.1"
   id="svg992"
   sodipodi:docname="endings_logo_icon_dark.svg"
   inkscape:version="1.1.2 (0a00cf5339, 2022-02-04)"
   xmlns:inkscape="http://www.inkscape.org/namespaces/inkscape"
   xmlns:sodipodi="http://sodipodi.sourceforge.net/DTD/sodipodi-0.dtd"
   xmlns="http://www.w3.org/2000/svg"
   xmlns:svg="http://www.w3.org/2000/svg">
  <defs
     id="defs996" />
  <sodipodi:namedview
     id="namedview994"
     pagecolor="#ffffff"
     bordercolor="#666666"
     borderopacity="1.0"
     inkscape:pageshadow="2"
     inkscape:pageopacity="0.0"
     inkscape:pagecheckerboard="0"
     showgrid="false"
     inkscape:zoom="8.3300971"
     inkscape:cx="37.034382"
     inkscape:cy="51.5"
     inkscape:window-width="1920"
     inkscape:window-height="1109"
     inkscape:window-x="0"
     inkscape:window-y="27"
     inkscape:window-maximized="1"
     inkscape:current-layer="svg992"
     fit-margin-top="0"
     fit-margin-left="0"
     fit-margin-right="0"
     fit-margin-bottom="0" />
  <rect
     width="74"
     height="70.969521"
     fill="#152967"
     id="rect984"
     x="0"
     y="0"
     style="stroke-width:0.830075" />
  <path
     d="M 34.6272,7 14.2167,62.2443 H 8 L 28.4104,7 Z"
     fill="#ffffff"
     id="path986" />
  <path
     d="m 50.9075,63 c -6.0669,0 -10.8605,-1.8641 -14.3809,-5.5924 -3.4953,-3.7283 -5.243,-8.9051 -5.243,-15.5304 0,-6.6757 1.6228,-11.9784 4.8685,-15.9082 3.2707,-3.9299 7.6524,-5.8948 13.1451,-5.8948 5.1431,0 9.2127,1.713 12.2088,5.139 C 64.502,28.614 66,33.1107 66,38.7031 v 3.9676 H 37.725 c 0.1249,4.8619 1.3358,8.5524 3.6327,11.0715 2.3219,2.5192 5.5801,3.7787 9.7745,3.7787 4.4192,0 8.7884,-0.9321 13.1076,-2.7962 v 5.5924 c -2.197,0.9573 -4.2818,1.6375 -6.2542,2.0405 C 56.0382,62.7859 53.6789,63 50.9075,63 Z M 49.2223,25.3266 c -3.2956,0 -5.9297,1.0832 -7.902,3.2496 -1.9474,2.1665 -3.0959,5.1642 -3.4455,8.9933 h 21.4591 c 0,-3.955 -0.8739,-6.978 -2.6216,-9.0688 -1.7476,-2.1161 -4.2443,-3.1741 -7.49,-3.1741 z"
     fill="#ffffff"
     id="path988" />
</svg>
